<svg xmlns="http://www.w3.org/2000/svg" viewBox="0 0 1464.64 765.17"><defs><style>.cls-1,.cls-2,.cls-3{fill:none;stroke-miterlimit:10;}.cls-1,.cls-3{stroke:#000;}.cls-1{stroke-width:4px;}.cls-2{stroke:#333;}.cls-2,.cls-3{stroke-width:2px;}</style></defs><g id="Livello_1" data-name="Livello 1"><text x="-233.43" y="-132.65"/></g><g id="Livello_3" data-name="Livello 3"><path class="cls-1" d="M686.41,892.72s62.42,2.9,64.22.21c12.23-18.34,2.22-28.32.7-30.14-15.19-18.2,5.35-27.49,5.36-31.07.33-63.37-40.51-373.13-15.33-382.82.57-.22,7.44-2.7,7.07-5.31s-5.43-2.69-6.81-5.65c-1.08-2.31.22-5,9-12.11,12.1-9.85,14-10.94,14.2-13.36.47-5.73-16.38-9.08-22.23-14.26-15.21-13.47-4.93-40.78-.55-50.73,26.79-60.78,138.42-129.55,209.48-125.06,4.47.29,74.85-9.12,164.12,32.84,47.26,22.21,68.17,42.94,84.87,81.59,9.74,22.55,10.89,46.43,8.45,56.94-3,13.09-18.24,15.14-27.05,20.41-5.49,3.29,9.57,7.83,16.93,18.23,2.5,3.54-9.62,6.73-5.46,10.84,2.78,2.74,7.06,3,8.19,4.88,2.86,4.65-.45,8.15,3.73,5,21.2-15.92,52.29-25.28,52.91-35.7,2.86-47.91-6.11-183.83-6.11-183.83s-155.7-95.68-287.54-98.93c-96.52-2.38-281.78,100-281.78,100Z" transform="translate(-233.43 -132.65)"/></g><g id="Livello_4" data-name="Livello 4"><path class="cls-1" d="M1259.08,692.89,1258,880.94l-63.35.21s-15.78-14.68,1.66-35.25c7.29-8.6-1.12-18.43-6.23-23.14a9.29,9.29,0,0,1-3-7.61l9.18-98.11Z" transform="translate(-233.43 -132.65)"/></g><g id="Livello_6" data-name="Livello 6"><path class="cls-2" d="M1666.62,781.42s-34.71,29.19-31,41.73c1.17,3.9,6.87,7.85,13,8.24,4.83.3,10.56-1.46,13.31-4.16,2.92-2.85,7.48-15-2.8-15.89-4.75-.43-7.79,2.55-7.48,9.35" transform="translate(-233.43 -132.65)"/><path class="cls-2" d="M1664.46,881.16s-33.66-28.2-29.92-40.75c1.16-3.89,6.87-7.85,13-8.23,4.83-.3,10.55,1.46,13.31,4.15,2.92,2.86,7.48,15-2.81,15.9-4.74.43-7.78-2.55-7.47-9.35" transform="translate(-233.43 -132.65)"/><path class="cls-2" d="M1665.33,880.82s33.66-28.21,29.92-40.75c-1.16-3.89-6.87-7.85-13-8.23-4.83-.3-10.56,1.46-13.31,4.15-2.92,2.86-7.48,15,2.8,15.89,4.75.44,7.79-2.54,7.48-9.34" transform="translate(-233.43 -132.65)"/><path class="cls-2" d="M1679.64,820.54c.31-6.8-2.73-9.78-7.47-9.35-10.29.93-5.73,13-2.81,15.89,2.76,2.7,8.48,4.46,13.31,4.16,6.11-.39,11.82-4.34,13-8.24,3.74-12.54-30.85-41.68-30.85-41.68" transform="translate(-233.43 -132.65)"/><path class="cls-2" d="M1603.72,781.69s-34.7,29.18-31,41.73c1.16,3.89,6.87,7.85,13,8.23,4.83.3,10.56-1.46,13.32-4.15,2.91-2.86,7.48-15-2.81-15.9-4.75-.43-7.79,2.55-7.48,9.35" transform="translate(-233.43 -132.65)"/><path class="cls-2" d="M1601.56,881.42s-33.66-28.2-29.92-40.74c1.17-3.9,6.87-7.85,13-8.24,4.83-.3,10.56,1.47,13.31,4.16,2.92,2.85,7.48,15-2.8,15.89-4.75.43-7.79-2.55-7.48-9.35" transform="translate(-233.43 -132.65)"/><path class="cls-2" d="M1602.44,881.08s33.65-28.2,29.91-40.74c-1.16-3.9-6.87-7.85-13-8.24-4.83-.3-10.55,1.46-13.31,4.16-2.92,2.85-7.48,15,2.81,15.89,4.74.43,7.78-2.55,7.48-9.35" transform="translate(-233.43 -132.65)"/><path class="cls-2" d="M1601.9,781.59s34.59,29.14,30.85,41.68c-1.16,3.89-6.86,7.85-13,8.23-4.83.3-10.56-1.46-13.31-4.15-2.92-2.86-7.48-15,2.8-15.9,4.75-.43,7.79,2.55,7.48,9.35" transform="translate(-233.43 -132.65)"/><path class="cls-2" d="M1540.9,782.24s-34.7,29.18-31,41.72c1.16,3.9,6.86,7.85,13,8.24,4.83.3,10.56-1.46,13.31-4.16,2.92-2.85,7.48-14.95-2.8-15.89-4.75-.43-7.79,2.55-7.48,9.35" transform="translate(-233.43 -132.65)"/><path class="cls-2" d="M1538.74,882s-33.66-28.2-29.92-40.75c1.16-3.89,6.87-7.85,13-8.23,4.83-.3,10.56,1.46,13.31,4.15,2.92,2.86,7.48,15-2.8,15.9-4.75.43-7.79-2.55-7.48-9.35" transform="translate(-233.43 -132.65)"/><path class="cls-2" d="M1539.61,881.63s33.66-28.21,29.92-40.75c-1.16-3.89-6.87-7.85-13-8.23-4.83-.3-10.56,1.46-13.31,4.15-2.92,2.86-7.48,15,2.8,15.9,4.75.43,7.79-2.55,7.48-9.35" transform="translate(-233.43 -132.65)"/><path class="cls-2" d="M1539.08,782.13s34.59,29.14,30.85,41.68c-1.16,3.9-6.87,7.85-13,8.24-4.84.3-10.56-1.46-13.32-4.16-2.91-2.85-7.48-14.95,2.81-15.89,4.75-.43,7.79,2.55,7.48,9.35" transform="translate(-233.43 -132.65)"/><path class="cls-2" d="M1478.46,781.6s-34.7,29.18-31,41.73c1.16,3.89,6.86,7.85,13,8.23,4.83.3,10.56-1.46,13.31-4.15,2.92-2.86,7.48-15-2.8-15.9-4.75-.43-7.79,2.55-7.48,9.35" transform="translate(-233.43 -132.65)"/><path class="cls-2" d="M1476.3,881.33s-33.66-28.2-29.92-40.74c1.16-3.9,6.87-7.85,13-8.24,4.83-.3,10.56,1.47,13.31,4.16,2.92,2.85,7.48,15-2.8,15.89-4.75.43-7.79-2.55-7.48-9.35" transform="translate(-233.43 -132.65)"/><path class="cls-2" d="M1477.17,881s33.66-28.2,29.92-40.74c-1.16-3.9-6.87-7.85-13-8.24-4.83-.3-10.56,1.46-13.31,4.16-2.92,2.85-7.48,15,2.8,15.89,4.75.43,7.79-2.55,7.48-9.35" transform="translate(-233.43 -132.65)"/><path class="cls-2" d="M1476.64,781.5s34.59,29.14,30.85,41.68c-1.16,3.89-6.87,7.85-13,8.23-4.84.3-10.56-1.46-13.32-4.15-2.91-2.86-7.48-15,2.81-15.9,4.74-.43,7.79,2.55,7.48,9.35" transform="translate(-233.43 -132.65)"/><path class="cls-2" d="M1416.76,781.6s-34.7,29.18-31,41.73c1.16,3.89,6.86,7.85,13,8.23,4.83.3,10.56-1.46,13.31-4.15,2.92-2.86,7.48-15-2.8-15.9-4.75-.43-7.79,2.55-7.48,9.35" transform="translate(-233.43 -132.65)"/><path class="cls-2" d="M1414.6,881.33s-33.66-28.2-29.92-40.74c1.16-3.9,6.87-7.85,13-8.24,4.83-.3,10.56,1.47,13.31,4.16,2.92,2.85,7.48,15-2.8,15.89-4.75.43-7.79-2.55-7.48-9.35" transform="translate(-233.43 -132.65)"/><path class="cls-2" d="M1415.47,881s33.66-28.2,29.92-40.74c-1.16-3.9-6.87-7.85-13-8.24-4.83-.3-10.56,1.46-13.31,4.16-2.92,2.85-7.48,15,2.8,15.89,4.75.43,7.79-2.55,7.48-9.35" transform="translate(-233.43 -132.65)"/><path class="cls-2" d="M1414.94,781.5s34.59,29.14,30.85,41.68c-1.16,3.89-6.87,7.85-13,8.23-4.84.3-10.56-1.46-13.32-4.15-2.91-2.86-7.48-15,2.81-15.9,4.74-.43,7.79,2.55,7.48,9.35" transform="translate(-233.43 -132.65)"/><path class="cls-2" d="M1354.12,781.6s-34.7,29.18-31,41.73c1.16,3.89,6.87,7.85,13,8.23,4.83.3,10.56-1.46,13.31-4.15,2.92-2.86,7.48-15-2.8-15.9-4.75-.43-7.79,2.55-7.48,9.35" transform="translate(-233.43 -132.65)"/><path class="cls-2" d="M1352,881.33s-33.65-28.2-29.91-40.74c1.16-3.9,6.86-7.85,13-8.24,4.83-.3,10.56,1.47,13.32,4.16,2.91,2.85,7.47,15-2.81,15.89-4.75.43-7.79-2.55-7.48-9.35" transform="translate(-233.43 -132.65)"/><path class="cls-2" d="M1352.84,881s33.65-28.2,29.91-40.74c-1.16-3.9-6.86-7.85-13-8.24-4.83-.3-10.56,1.46-13.32,4.16-2.91,2.85-7.47,15,2.81,15.89,4.75.43,7.79-2.55,7.48-9.35" transform="translate(-233.43 -132.65)"/><path class="cls-2" d="M1352.31,781.5s34.59,29.14,30.85,41.68c-1.16,3.89-6.87,7.85-13,8.23-4.83.3-10.56-1.46-13.31-4.15-2.92-2.86-7.48-15,2.8-15.9,4.75-.43,7.79,2.55,7.48,9.35" transform="translate(-233.43 -132.65)"/><line class="cls-1" x1="1086.83" y1="748.34" x2="1462.64" y2="748.34"/><line class="cls-1" x1="1087.76" y1="634.29" x2="1463.57" y2="634.29"/><path class="cls-1" d="M1321.19,894.07V701.49" transform="translate(-233.43 -132.65)"/><line class="cls-1" x1="1150.4" y1="761.43" x2="1150.4" y2="554.83"/><line class="cls-1" x1="1213.03" y1="761.43" x2="1213.03" y2="535.19"/><line class="cls-1" x1="1275.67" y1="761.43" x2="1276.6" y2="510.89"/><line class="cls-1" x1="1337.37" y1="761.43" x2="1337.37" y2="483.78"/><line class="cls-1" x1="1400.94" y1="764.23" x2="1400.94" y2="442.64"/><path class="cls-1" d="M1696.07,894.07V508" transform="translate(-233.43 -132.65)"/><path class="cls-3" d="M1321.76,709.73s292.85-19.8,373.78-184.16" transform="translate(-233.43 -132.65)"/><path class="cls-1" d="M1457.68,608" transform="translate(-233.43 -132.65)"/><path class="cls-1" d="M1540.9,739.27" transform="translate(-233.43 -132.65)"/><path class="cls-3" d="M1384.39,745.19a31,31,0,0,0,28.42,11.46c18.69-2.3,34.4-21.48,34.4-21.48s3,19.61,25.08,16.81c28.9-3.67,36.81-32.26,36.81-32.26.37,0,9.34,17.3,29.52,17.68,16.84.32,32.73-40.92,32.73-40.92s11.15,26.15,26.33,24.46,30-16,37.55-61.68c0,0-.08,40.49,29.23,45.53,29.74,5.12,31.61-112.67,31.61-112.67-38,66.76-113.55,105.33-187,127.6-96.22,29.18-188.84,30.39-188.84,30.39" transform="translate(-233.43 -132.65)"/><path class="cls-3" d="M1321.94,750.05s13.12,10.83,31,9.65a47.3,47.3,0,0,0,29-13" transform="translate(-233.43 -132.65)"/><line class="cls-3" x1="1432.72" y1="572.59" x2="1431.79" y2="648.31"/><line class="cls-3" x1="1368.22" y1="587.55" x2="1368.22" y2="649.25"/><line class="cls-3" x1="1306.52" y1="604.37" x2="1306.52" y2="650.18"/><line class="cls-3" x1="1243.88" y1="618.4" x2="1243.88" y2="649.25"/><line class="cls-3" x1="1182.18" y1="624" x2="1182.18" y2="649.25"/><line class="cls-3" x1="1119.55" y1="627.74" x2="1119.55" y2="649.25"/><path class="cls-2" d="M1512.23,853.4" transform="translate(-233.43 -132.65)"/><path class="cls-2" d="M284,782.36s34.7,29.18,31,41.73c-1.16,3.89-6.87,7.85-13,8.23-4.83.3-10.55-1.46-13.31-4.15-2.92-2.86-7.48-15,2.81-15.9,4.74-.43,7.78,2.55,7.47,9.35" transform="translate(-233.43 -132.65)"/><path class="cls-2" d="M286.14,882.09s33.65-28.2,29.91-40.74c-1.16-3.9-6.86-7.85-13-8.24-4.83-.3-10.56,1.47-13.31,4.16-2.92,2.85-7.48,15,2.8,15.89,4.75.43,7.79-2.55,7.48-9.35" transform="translate(-233.43 -132.65)"/><path class="cls-2" d="M285.26,881.75s-33.65-28.2-29.91-40.74c1.16-3.9,6.87-7.85,13-8.24,4.83-.3,10.56,1.46,13.32,4.16,2.91,2.85,7.48,15-2.81,15.89-4.75.43-7.79-2.55-7.48-9.35" transform="translate(-233.43 -132.65)"/><path class="cls-2" d="M271,821.47c-.31-6.8,2.73-9.78,7.48-9.35,10.28.94,5.72,13,2.8,15.9-2.75,2.69-8.48,4.45-13.31,4.15-6.11-.38-11.81-4.34-13-8.23-3.74-12.54,30.85-41.68,30.85-41.68" transform="translate(-233.43 -132.65)"/><path class="cls-2" d="M346.87,782.62s34.71,29.19,31,41.73c-1.16,3.9-6.87,7.85-13,8.24-4.83.3-10.56-1.47-13.31-4.16-2.92-2.85-7.48-15,2.8-15.89,4.75-.43,7.79,2.55,7.48,9.35" transform="translate(-233.43 -132.65)"/><path class="cls-2" d="M349,882.36s33.65-28.2,29.91-40.75c-1.16-3.89-6.87-7.85-13-8.23-4.83-.3-10.55,1.46-13.31,4.15-2.92,2.86-7.48,15,2.81,15.9,4.74.43,7.78-2.55,7.48-9.35" transform="translate(-233.43 -132.65)"/><path class="cls-2" d="M348.16,882s-33.66-28.21-29.92-40.75c1.17-3.89,6.87-7.85,13-8.23,4.83-.3,10.56,1.46,13.31,4.15,2.92,2.85,7.48,15-2.8,15.89-4.75.44-7.79-2.55-7.48-9.34" transform="translate(-233.43 -132.65)"/><path class="cls-2" d="M348.69,782.52s-34.59,29.14-30.85,41.68c1.16,3.9,6.87,7.85,13,8.24,4.83.3,10.56-1.46,13.31-4.16,2.92-2.85,7.48-15-2.8-15.89-4.75-.43-7.79,2.55-7.48,9.35" transform="translate(-233.43 -132.65)"/><path class="cls-2" d="M409.7,783.17s34.7,29.19,31,41.73c-1.16,3.89-6.87,7.85-13,8.23-4.83.3-10.56-1.46-13.31-4.15-2.92-2.86-7.48-15,2.8-15.89,4.75-.44,7.79,2.54,7.48,9.34" transform="translate(-233.43 -132.65)"/><path class="cls-2" d="M411.86,882.9s33.65-28.2,29.91-40.74c-1.16-3.9-6.87-7.85-13-8.23-4.83-.31-10.56,1.46-13.32,4.15-2.91,2.85-7.48,15,2.81,15.89,4.75.43,7.79-2.55,7.48-9.35" transform="translate(-233.43 -132.65)"/><path class="cls-2" d="M411,882.56s-33.65-28.2-29.91-40.74c1.16-3.9,6.86-7.85,13-8.24,4.83-.3,10.56,1.46,13.31,4.16,2.92,2.85,7.48,15-2.8,15.89-4.75.43-7.79-2.55-7.48-9.35" transform="translate(-233.43 -132.65)"/><path class="cls-2" d="M411.51,783.07s-34.59,29.14-30.85,41.68c1.16,3.89,6.87,7.85,13,8.23,4.83.3,10.56-1.46,13.31-4.15,2.92-2.85,7.48-15-2.8-15.89-4.75-.44-7.79,2.55-7.48,9.34" transform="translate(-233.43 -132.65)"/><path class="cls-2" d="M472.14,782.53s34.7,29.19,31,41.73c-1.16,3.9-6.87,7.85-13,8.24-4.83.3-10.56-1.47-13.31-4.16-2.92-2.85-7.48-15,2.8-15.89,4.75-.43,7.79,2.55,7.48,9.35" transform="translate(-233.43 -132.65)"/><path class="cls-2" d="M474.3,882.27s33.65-28.2,29.91-40.75c-1.16-3.89-6.86-7.85-13-8.23-4.83-.3-10.56,1.46-13.32,4.15-2.91,2.86-7.47,15,2.81,15.9,4.75.43,7.79-2.55,7.48-9.35" transform="translate(-233.43 -132.65)"/><path class="cls-2" d="M473.42,881.93s-33.65-28.21-29.91-40.75c1.16-3.89,6.86-7.85,13-8.23,4.83-.3,10.56,1.46,13.32,4.15,2.91,2.85,7.47,15-2.81,15.89-4.75.44-7.79-2.55-7.48-9.34" transform="translate(-233.43 -132.65)"/><path class="cls-2" d="M474,782.43s-34.59,29.14-30.85,41.68c1.16,3.9,6.87,7.85,13,8.24,4.83.3,10.56-1.46,13.31-4.16,2.92-2.85,7.48-15-2.8-15.89-4.75-.43-7.79,2.55-7.48,9.35" transform="translate(-233.43 -132.65)"/><path class="cls-2" d="M533.84,782.53s34.7,29.19,31,41.73c-1.16,3.9-6.87,7.85-13,8.24-4.83.3-10.56-1.47-13.31-4.16-2.92-2.85-7.48-15,2.8-15.89,4.75-.43,7.79,2.55,7.48,9.35" transform="translate(-233.43 -132.65)"/><path class="cls-2" d="M536,882.27s33.65-28.2,29.91-40.75c-1.16-3.89-6.86-7.85-13-8.23-4.83-.3-10.56,1.46-13.32,4.15-2.91,2.86-7.47,15,2.81,15.9,4.75.43,7.79-2.55,7.48-9.35" transform="translate(-233.43 -132.65)"/><path class="cls-2" d="M535.12,881.93s-33.65-28.21-29.91-40.75c1.16-3.89,6.86-7.85,13-8.23,4.83-.3,10.56,1.46,13.32,4.15,2.91,2.85,7.47,15-2.81,15.89-4.75.44-7.79-2.55-7.48-9.34" transform="translate(-233.43 -132.65)"/><path class="cls-2" d="M535.65,782.43s-34.59,29.14-30.85,41.68c1.16,3.9,6.87,7.85,13,8.24,4.83.3,10.56-1.46,13.31-4.16,2.92-2.85,7.48-15-2.8-15.89-4.75-.43-7.79,2.55-7.48,9.35" transform="translate(-233.43 -132.65)"/><path class="cls-2" d="M596.47,782.53s34.7,29.19,31,41.73c-1.16,3.9-6.86,7.85-13,8.24-4.83.3-10.56-1.47-13.32-4.16-2.91-2.85-7.47-15,2.81-15.89,4.75-.43,7.79,2.55,7.48,9.35" transform="translate(-233.43 -132.65)"/><path class="cls-2" d="M598.63,882.27s33.66-28.2,29.92-40.75c-1.16-3.89-6.87-7.85-13-8.23-4.83-.3-10.56,1.46-13.31,4.15-2.92,2.86-7.48,15,2.8,15.9,4.75.43,7.79-2.55,7.48-9.35" transform="translate(-233.43 -132.65)"/><path class="cls-2" d="M597.76,881.93s-33.66-28.21-29.92-40.75c1.16-3.89,6.87-7.85,13-8.23,4.83-.3,10.56,1.46,13.31,4.15,2.92,2.85,7.48,15-2.8,15.89-4.75.44-7.79-2.55-7.48-9.34" transform="translate(-233.43 -132.65)"/><path class="cls-2" d="M598.29,782.43s-34.59,29.14-30.85,41.68c1.16,3.9,6.87,7.85,13,8.24,4.83.3,10.56-1.46,13.32-4.16,2.91-2.85,7.48-15-2.81-15.89-4.75-.43-7.79,2.55-7.48,9.35" transform="translate(-233.43 -132.65)"/><line class="cls-1" x1="396.91" y1="749.27" x2="21.1" y2="749.27"/><line class="cls-1" x1="395.97" y1="635.22" x2="20.16" y2="635.22"/><path class="cls-1" d="M629.4,895V702.43" transform="translate(-233.43 -132.65)"/><line class="cls-1" x1="333.34" y1="762.36" x2="333.34" y2="555.76"/><line class="cls-1" x1="270.7" y1="762.36" x2="270.7" y2="536.13"/><line class="cls-1" x1="208.07" y1="762.36" x2="207.13" y2="511.82"/><line class="cls-1" x1="146.37" y1="762.36" x2="146.37" y2="484.71"/><line class="cls-1" x1="82.8" y1="765.17" x2="82.8" y2="443.58"/><path class="cls-1" d="M254.53,895V508.92" transform="translate(-233.43 -132.65)"/><path class="cls-3" d="M628.84,710.66S336,690.87,255.06,526.51" transform="translate(-233.43 -132.65)"/><path class="cls-1" d="M492.92,608.94" transform="translate(-233.43 -132.65)"/><path class="cls-1" d="M409.7,740.21" transform="translate(-233.43 -132.65)"/><path class="cls-3" d="M566.2,746.12a31.06,31.06,0,0,1-28.41,11.47c-18.69-2.3-34.41-21.48-34.41-21.48s-3,19.61-25.07,16.8c-28.91-3.67-36.81-32.26-36.81-32.26-.37,0-9.35,17.3-29.53,17.69-16.83.32-32.73-40.93-32.73-40.93s-11.15,26.15-26.33,24.47-30-16-37.54-61.68c0,0,.07,40.48-29.23,45.53-29.74,5.11-31.61-112.68-31.61-112.68,38,66.77,113.55,105.33,187,127.6C537.71,749.84,630.34,751,630.34,751" transform="translate(-233.43 -132.65)"/><path class="cls-3" d="M628.65,751s-13.12,10.83-31,9.65a47.23,47.23,0,0,1-29-13" transform="translate(-233.43 -132.65)"/><line class="cls-3" x1="51.01" y1="573.52" x2="51.95" y2="649.25"/><line class="cls-3" x1="115.52" y1="588.48" x2="115.52" y2="650.18"/><line class="cls-3" x1="177.22" y1="605.31" x2="177.22" y2="651.12"/><line class="cls-3" x1="239.85" y1="619.33" x2="239.85" y2="650.18"/><line class="cls-3" x1="301.55" y1="624.94" x2="301.55" y2="650.18"/><line class="cls-3" x1="364.19" y1="628.68" x2="364.19" y2="650.18"/><path class="cls-2" d="M438.36,854.33" transform="translate(-233.43 -132.65)"/></g></svg>