<svg xmlns="http://www.w3.org/2000/svg" viewBox="0 0 1920 1080"><defs><style>.cls-1,.cls-2{fill:none;stroke:#fff;stroke-miterlimit:10;}.cls-1{stroke-width:4px;}.cls-2{stroke-width:2px;}</style></defs><g id="Livello_8" data-name="Livello 8"><rect x="0.5" y="0.5" width="1919" height="1079"/><path d="M1919,1V1079H1V1H1919m1-1H0V1080H1920V0Z"/></g><g id="Livello_9" data-name="Livello 9"><text/><path class="cls-1" d="M687.28,892.17s62.41,2.91,64.21.22c12.23-18.34,2.23-28.32.71-30.14-15.2-18.2,5.34-27.49,5.36-31.07.32-63.37-40.51-373.14-15.33-382.82.57-.22,7.43-2.7,7.07-5.31s-5.44-2.69-6.81-5.65c-1.08-2.32.21-5,9-12.11,12.1-9.85,14-10.94,14.2-13.36.46-5.73-16.39-9.08-22.23-14.26-15.22-13.47-4.93-40.78-.55-50.73,26.79-60.78,138.42-129.55,209.47-125.06,4.48.29,74.85-9.12,164.12,32.84,47.27,22.21,68.18,42.94,84.88,81.59,9.74,22.55,10.88,46.43,8.45,56.93-3,13.1-18.25,15.15-27,20.42-5.5,3.29,9.57,7.83,16.93,18.23,2.5,3.53-9.62,6.73-5.46,10.84,2.78,2.74,7.06,3,8.19,4.88,2.86,4.65-.46,8.15,3.73,5,21.2-15.92,52.28-25.28,52.9-35.7,2.86-47.91-6.1-183.83-6.1-183.83s-155.71-95.68-287.54-98.93c-96.52-2.38-281.79,100-281.79,100Z"/><path class="cls-1" d="M1259.94,692.35l-1.1,188-63.34.21s-15.78-14.68,1.66-35.25c7.29-8.6-1.12-18.43-6.24-23.14a9.25,9.25,0,0,1-2.94-7.61l9.18-98.11Z"/><path class="cls-2" d="M1667.48,780.88s-34.7,29.19-31,41.73c1.16,3.9,6.87,7.85,13,8.24,4.83.3,10.55-1.47,13.31-4.16,2.92-2.85,7.48-15-2.81-15.89-4.74-.43-7.78,2.55-7.47,9.35"/><path class="cls-2" d="M1665.32,880.62s-33.65-28.2-29.91-40.75c1.16-3.89,6.86-7.85,13-8.23,4.83-.3,10.56,1.46,13.32,4.15,2.91,2.86,7.47,15-2.81,15.9-4.75.43-7.79-2.55-7.48-9.35"/><path class="cls-2" d="M1666.2,880.28s33.65-28.21,29.91-40.75c-1.16-3.89-6.86-7.85-13-8.23-4.83-.3-10.56,1.46-13.32,4.15-2.91,2.85-7.47,15,2.81,15.89,4.75.44,7.79-2.55,7.48-9.34"/><path class="cls-2" d="M1680.51,820c.31-6.8-2.73-9.78-7.48-9.35-10.28.93-5.72,13-2.8,15.89,2.75,2.7,8.48,4.46,13.31,4.16,6.11-.39,11.81-4.34,13-8.24,3.74-12.54-30.85-41.68-30.85-41.68"/><path class="cls-2" d="M1604.59,781.15s-34.71,29.18-31,41.73c1.17,3.89,6.87,7.85,13,8.23,4.83.3,10.56-1.46,13.31-4.15,2.92-2.86,7.48-15-2.8-15.9-4.75-.43-7.79,2.55-7.48,9.35"/><path class="cls-2" d="M1602.43,880.88s-33.66-28.2-29.92-40.74c1.16-3.9,6.87-7.85,13-8.24,4.83-.3,10.55,1.46,13.31,4.16,2.92,2.85,7.48,15-2.81,15.89-4.74.43-7.78-2.55-7.47-9.35"/><path class="cls-2" d="M1603.3,880.54s33.66-28.2,29.92-40.74c-1.16-3.9-6.87-7.85-13-8.24-4.83-.3-10.56,1.46-13.31,4.16-2.92,2.85-7.48,14.95,2.8,15.89,4.75.43,7.79-2.55,7.48-9.35"/><path class="cls-2" d="M1602.77,781.05s34.59,29.13,30.85,41.68c-1.16,3.89-6.87,7.85-13,8.23-4.83.3-10.55-1.46-13.31-4.15-2.92-2.86-7.48-15,2.81-15.9,4.74-.43,7.78,2.55,7.47,9.35"/><path class="cls-2" d="M1541.77,781.69s-34.71,29.19-31,41.73c1.16,3.9,6.87,7.85,13,8.24,4.83.3,10.56-1.46,13.31-4.16,2.92-2.85,7.48-15-2.8-15.89-4.75-.43-7.79,2.55-7.48,9.35"/><path class="cls-2" d="M1539.6,881.43s-33.65-28.2-29.91-40.75c1.16-3.89,6.87-7.85,13-8.23,4.84-.3,10.56,1.46,13.32,4.15,2.92,2.86,7.48,15-2.81,15.9-4.74.43-7.79-2.55-7.48-9.35"/><path class="cls-2" d="M1540.48,881.09s33.65-28.21,29.92-40.75c-1.17-3.89-6.87-7.85-13-8.23-4.83-.3-10.56,1.46-13.31,4.15-2.92,2.86-7.48,15,2.8,15.9,4.75.43,7.79-2.55,7.48-9.35"/><path class="cls-2" d="M1540,781.59s34.59,29.14,30.85,41.68c-1.16,3.9-6.87,7.85-13,8.24-4.83.3-10.56-1.46-13.31-4.16-2.92-2.85-7.48-15,2.8-15.89,4.75-.43,7.79,2.55,7.48,9.35"/><path class="cls-2" d="M1479.32,781.06s-34.7,29.18-31,41.73c1.16,3.89,6.87,7.85,13,8.23,4.83.3,10.56-1.46,13.31-4.15,2.92-2.86,7.48-15-2.8-15.9-4.75-.43-7.79,2.55-7.48,9.35"/><path class="cls-2" d="M1477.16,880.79s-33.65-28.2-29.91-40.74c1.16-3.9,6.87-7.85,13-8.24,4.84-.3,10.56,1.46,13.32,4.16,2.91,2.85,7.48,15-2.81,15.89-4.74.43-7.79-2.55-7.48-9.35"/><path class="cls-2" d="M1478,880.45s33.65-28.2,29.91-40.74c-1.16-3.9-6.86-7.85-13-8.24-4.83-.3-10.56,1.46-13.31,4.16-2.92,2.85-7.48,15,2.8,15.89,4.75.43,7.79-2.55,7.48-9.35"/><path class="cls-2" d="M1477.51,781s34.59,29.14,30.85,41.68c-1.16,3.89-6.87,7.85-13,8.23-4.83.3-10.56-1.46-13.31-4.15-2.92-2.86-7.48-15,2.8-15.9,4.75-.43,7.79,2.55,7.48,9.35"/><path class="cls-2" d="M1417.62,781.06s-34.7,29.18-31,41.73c1.16,3.89,6.87,7.85,13,8.23,4.83.3,10.56-1.46,13.31-4.15,2.92-2.86,7.48-15-2.8-15.9-4.75-.43-7.79,2.55-7.48,9.35"/><path class="cls-2" d="M1415.46,880.79s-33.65-28.2-29.91-40.74c1.16-3.9,6.87-7.85,13-8.24,4.84-.3,10.56,1.46,13.32,4.16,2.91,2.85,7.48,15-2.81,15.89-4.74.43-7.79-2.55-7.48-9.35"/><path class="cls-2" d="M1416.34,880.45s33.65-28.2,29.91-40.74c-1.16-3.9-6.86-7.85-13-8.24-4.83-.3-10.56,1.46-13.31,4.16-2.92,2.85-7.48,15,2.8,15.89,4.75.43,7.79-2.55,7.48-9.35"/><path class="cls-2" d="M1415.81,781s34.59,29.14,30.85,41.68c-1.16,3.89-6.87,7.85-13,8.23-4.83.3-10.56-1.46-13.31-4.15-2.92-2.86-7.48-15,2.8-15.9,4.75-.43,7.79,2.55,7.48,9.35"/><path class="cls-2" d="M1355,781.06s-34.7,29.18-31,41.73c1.16,3.89,6.86,7.85,13,8.23,4.83.3,10.56-1.46,13.32-4.15,2.91-2.86,7.47-15-2.81-15.9-4.75-.43-7.79,2.55-7.48,9.35"/><path class="cls-2" d="M1352.83,880.79s-33.66-28.2-29.92-40.74c1.16-3.9,6.87-7.85,13-8.24,4.83-.3,10.56,1.46,13.31,4.16,2.92,2.85,7.48,15-2.8,15.89-4.75.43-7.79-2.55-7.48-9.35"/><path class="cls-2" d="M1353.7,880.45s33.66-28.2,29.92-40.74c-1.16-3.9-6.87-7.85-13-8.24-4.83-.3-10.55,1.46-13.31,4.16-2.92,2.85-7.48,15,2.81,15.89,4.74.43,7.78-2.55,7.47-9.35"/><path class="cls-2" d="M1353.17,781s34.59,29.14,30.85,41.68c-1.16,3.89-6.86,7.85-13,8.23-4.83.3-10.56-1.46-13.32-4.15-2.91-2.86-7.47-15,2.81-15.9,4.75-.43,7.79,2.55,7.48,9.35"/><line class="cls-1" x1="1321.12" y1="880.45" x2="1696.93" y2="880.45"/><line class="cls-1" x1="1322.06" y1="766.39" x2="1697.87" y2="766.39"/><path class="cls-1" d="M1322.06,893.53V701"/><line class="cls-1" x1="1384.69" y1="893.53" x2="1384.69" y2="686.93"/><line class="cls-1" x1="1447.33" y1="893.53" x2="1447.33" y2="667.3"/><line class="cls-1" x1="1509.96" y1="893.53" x2="1510.9" y2="642.99"/><line class="cls-1" x1="1571.66" y1="893.53" x2="1571.66" y2="615.88"/><line class="cls-1" x1="1635.23" y1="896.34" x2="1635.23" y2="574.75"/><path class="cls-1" d="M1696.93,893.53V507.44"/><path class="cls-2" d="M1322.62,709.19S1615.48,689.39,1696.4,525"/><path class="cls-1" d="M1458.55,607.47"/><path class="cls-1" d="M1541.77,738.73"/><path class="cls-2" d="M1385.26,744.64a31,31,0,0,0,28.41,11.47c18.69-2.3,34.41-21.48,34.41-21.48s3,19.61,25.07,16.81c28.91-3.67,36.81-32.26,36.81-32.26.37,0,9.35,17.3,29.53,17.68,16.83.32,32.73-40.92,32.73-40.92s11.15,26.15,26.33,24.46,30-16,37.55-61.68c0,0-.08,40.49,29.22,45.53,29.74,5.12,31.61-112.67,31.61-112.67-38,66.76-113.55,105.33-187,127.6-96.21,29.18-188.84,30.39-188.84,30.39"/><path class="cls-2" d="M1322.81,749.51s13.12,10.83,31,9.65a47.29,47.29,0,0,0,29-13"/><line class="cls-2" x1="1667.02" y1="704.69" x2="1666.08" y2="780.42"/><line class="cls-2" x1="1602.51" y1="719.65" x2="1602.51" y2="781.35"/><line class="cls-2" x1="1540.81" y1="736.48" x2="1540.81" y2="782.29"/><line class="cls-2" x1="1478.18" y1="750.5" x2="1478.18" y2="781.35"/><line class="cls-2" x1="1416.48" y1="756.11" x2="1416.48" y2="781.35"/><line class="cls-2" x1="1353.84" y1="759.85" x2="1353.84" y2="781.35"/><path class="cls-2" d="M1513.1,852.86"/><path class="cls-2" d="M284.84,781.82s34.71,29.18,31,41.73c-1.17,3.89-6.87,7.85-13,8.23-4.83.3-10.56-1.46-13.31-4.15-2.92-2.86-7.48-15,2.8-15.9,4.75-.43,7.79,2.55,7.48,9.35"/><path class="cls-2" d="M287,881.55s33.65-28.2,29.91-40.74c-1.16-3.9-6.87-7.85-13-8.24-4.83-.3-10.55,1.46-13.31,4.16-2.92,2.85-7.48,15,2.81,15.89,4.74.43,7.78-2.55,7.47-9.35"/><path class="cls-2" d="M286.13,881.21s-33.66-28.2-29.92-40.74c1.17-3.9,6.87-7.85,13-8.24,4.83-.3,10.56,1.46,13.31,4.16,2.92,2.85,7.48,15-2.8,15.89-4.75.43-7.79-2.55-7.48-9.35"/><path class="cls-2" d="M271.82,820.93c-.31-6.8,2.73-9.78,7.47-9.35,10.29.94,5.73,13,2.81,15.9-2.76,2.69-8.48,4.45-13.31,4.15-6.11-.38-11.82-4.34-13-8.23-3.74-12.55,30.85-41.68,30.85-41.68"/><path class="cls-2" d="M347.74,782.08s34.7,29.19,31,41.73c-1.16,3.9-6.86,7.85-13,8.23-4.83.31-10.56-1.46-13.32-4.15-2.91-2.85-7.47-15,2.81-15.89,4.75-.43,7.79,2.55,7.48,9.35"/><path class="cls-2" d="M349.9,881.82s33.66-28.21,29.92-40.75c-1.16-3.89-6.87-7.85-13-8.23-4.83-.3-10.56,1.46-13.31,4.15-2.92,2.86-7.48,15,2.8,15.9,4.75.43,7.79-2.55,7.48-9.35"/><path class="cls-2" d="M349,881.48s-33.66-28.21-29.92-40.75c1.16-3.9,6.87-7.85,13-8.23,4.83-.3,10.55,1.46,13.31,4.15,2.92,2.85,7.48,15-2.81,15.89-4.74.44-7.78-2.55-7.47-9.34"/><path class="cls-2" d="M349.56,782S315,811.12,318.71,823.66c1.16,3.9,6.86,7.85,13,8.24,4.83.3,10.56-1.47,13.32-4.16,2.91-2.85,7.47-15-2.81-15.89-4.75-.43-7.79,2.55-7.48,9.35"/><path class="cls-2" d="M410.56,782.63s34.7,29.19,31,41.73c-1.16,3.89-6.86,7.85-13,8.23-4.83.3-10.56-1.46-13.31-4.15-2.92-2.86-7.48-15,2.8-15.9,4.75-.43,7.79,2.55,7.48,9.35"/><path class="cls-2" d="M412.72,882.36s33.66-28.2,29.92-40.74c-1.16-3.9-6.87-7.85-13-8.24-4.83-.3-10.56,1.47-13.31,4.16-2.92,2.85-7.48,15,2.8,15.89,4.75.43,7.79-2.55,7.48-9.35"/><path class="cls-2" d="M411.85,882s-33.66-28.2-29.92-40.74c1.16-3.9,6.87-7.85,13-8.24,4.83-.3,10.56,1.46,13.31,4.16,2.92,2.85,7.48,15-2.8,15.89-4.75.43-7.79-2.55-7.48-9.35"/><path class="cls-2" d="M412.38,782.53s-34.59,29.14-30.85,41.68c1.16,3.89,6.87,7.85,13,8.23,4.84.3,10.56-1.46,13.32-4.15,2.92-2.86,7.48-15-2.81-15.89-4.74-.44-7.78,2.54-7.48,9.34"/><path class="cls-2" d="M473,782s34.7,29.19,31,41.73c-1.17,3.9-6.87,7.85-13,8.24-4.83.3-10.56-1.47-13.31-4.16-2.92-2.85-7.48-15,2.8-15.89,4.75-.43,7.79,2.55,7.48,9.35"/><path class="cls-2" d="M475.16,881.73s33.66-28.21,29.92-40.75c-1.16-3.89-6.87-7.85-13-8.23-4.83-.3-10.56,1.46-13.31,4.15-2.92,2.86-7.48,15,2.8,15.9,4.75.43,7.79-2.55,7.48-9.35"/><path class="cls-2" d="M474.29,881.39s-33.66-28.21-29.92-40.75c1.16-3.89,6.87-7.85,13-8.23,4.83-.3,10.56,1.46,13.31,4.15,2.92,2.85,7.48,15-2.8,15.89-4.75.44-7.79-2.55-7.48-9.34"/><path class="cls-2" d="M474.82,781.89S440.23,811,444,823.57c1.16,3.9,6.87,7.85,13,8.24,4.84.3,10.56-1.47,13.32-4.16,2.92-2.85,7.48-15-2.81-15.89-4.74-.43-7.78,2.55-7.48,9.35"/><path class="cls-2" d="M534.7,782s34.7,29.19,31,41.73c-1.17,3.9-6.87,7.85-13,8.24-4.83.3-10.56-1.47-13.31-4.16-2.92-2.85-7.48-15,2.8-15.89,4.75-.43,7.79,2.55,7.48,9.35"/><path class="cls-2" d="M536.86,881.73s33.66-28.21,29.92-40.75c-1.16-3.89-6.87-7.85-13-8.23-4.83-.3-10.56,1.46-13.31,4.15-2.92,2.86-7.48,15,2.8,15.9,4.75.43,7.79-2.55,7.48-9.35"/><path class="cls-2" d="M536,881.39s-33.66-28.21-29.92-40.75c1.16-3.89,6.87-7.85,13-8.23,4.83-.3,10.56,1.46,13.31,4.15,2.92,2.85,7.48,15-2.8,15.89-4.75.44-7.79-2.55-7.48-9.34"/><path class="cls-2" d="M536.52,781.89S501.93,811,505.67,823.57c1.16,3.9,6.87,7.85,13,8.24,4.84.3,10.56-1.47,13.32-4.16,2.92-2.85,7.48-15-2.81-15.89-4.74-.43-7.78,2.55-7.48,9.35"/><path class="cls-2" d="M597.34,782s34.7,29.19,31,41.73c-1.16,3.9-6.87,7.85-13,8.24-4.83.3-10.55-1.47-13.31-4.16-2.92-2.85-7.48-15,2.81-15.89,4.74-.43,7.78,2.55,7.47,9.35"/><path class="cls-2" d="M599.5,881.73s33.65-28.21,29.91-40.75c-1.16-3.89-6.86-7.85-13-8.23-4.83-.3-10.56,1.46-13.32,4.15-2.91,2.86-7.47,15,2.81,15.9,4.75.43,7.79-2.55,7.48-9.35"/><path class="cls-2" d="M598.62,881.39S565,853.18,568.71,840.64c1.16-3.89,6.86-7.85,13-8.23,4.83-.3,10.56,1.46,13.32,4.15,2.91,2.85,7.47,15-2.81,15.89-4.75.44-7.79-2.55-7.48-9.34"/><path class="cls-2" d="M599.15,781.89S564.56,811,568.3,823.57c1.17,3.9,6.87,7.85,13,8.24,4.83.3,10.56-1.47,13.31-4.16,2.92-2.85,7.48-15-2.8-15.89-4.75-.43-7.79,2.55-7.48,9.35"/><line class="cls-1" x1="631.2" y1="881.38" x2="255.4" y2="881.38"/><line class="cls-1" x1="630.27" y1="767.33" x2="254.46" y2="767.33"/><path class="cls-1" d="M630.27,894.47V701.89"/><line class="cls-1" x1="567.63" y1="894.47" x2="567.63" y2="687.87"/><line class="cls-1" x1="505" y1="894.47" x2="505" y2="668.23"/><line class="cls-1" x1="442.37" y1="894.47" x2="441.43" y2="643.93"/><line class="cls-1" x1="380.67" y1="894.47" x2="380.67" y2="616.82"/><line class="cls-1" x1="317.1" y1="897.27" x2="317.1" y2="575.68"/><path class="cls-1" d="M255.4,894.47V508.38"/><path class="cls-2" d="M629.7,710.12S336.85,690.33,255.92,526"/><path class="cls-1" d="M493.78,608.4"/><path class="cls-1" d="M410.56,739.67"/><path class="cls-2" d="M567.07,745.58a31.07,31.07,0,0,1-28.42,11.47c-18.69-2.3-34.4-21.48-34.4-21.48s-3,19.61-25.08,16.8c-28.9-3.67-36.81-32.26-36.81-32.26-.37,0-9.34,17.3-29.52,17.69-16.84.31-32.73-40.93-32.73-40.93S369,723,353.78,721.34s-30-16-37.55-61.68c0,0,.08,40.48-29.22,45.53-29.74,5.11-31.61-112.68-31.61-112.68,38,66.76,113.54,105.33,187,127.6C538.58,749.3,631.2,750.5,631.2,750.5"/><path class="cls-2" d="M629.52,750.44s-13.12,10.83-31,9.65a47.24,47.24,0,0,1-29-13"/><line class="cls-2" x1="285.31" y1="705.63" x2="286.25" y2="781.35"/><line class="cls-2" x1="349.82" y1="720.59" x2="349.82" y2="782.29"/><line class="cls-2" x1="411.52" y1="737.41" x2="411.52" y2="783.22"/><line class="cls-2" x1="474.15" y1="751.44" x2="474.15" y2="782.29"/><line class="cls-2" x1="535.85" y1="757.05" x2="535.85" y2="782.29"/><line class="cls-2" x1="598.48" y1="760.78" x2="598.48" y2="782.29"/><path class="cls-2" d="M439.23,853.79"/></g></svg>