<?xml version="1.0" encoding="utf-8"?>
<!-- Generator: Adobe Illustrator 24.3.0, SVG Export Plug-In . SVG Version: 6.00 Build 0)  -->
<svg version="1.1" xmlns="http://www.w3.org/2000/svg" xmlns:xlink="http://www.w3.org/1999/xlink" x="0px" y="0px"
	 viewBox="0 0 1292.8 769" style="enable-background:new 0 0 1292.8 769;" xml:space="preserve">
<style type="text/css">
	.st0{fill:none;stroke:#666666;stroke-width:2;stroke-miterlimit:10;}
	.st1{fill:none;stroke:#333333;stroke-width:2;stroke-miterlimit:10;}
	.st2{fill:#FFF428;}
	.st3{filter:url(#Adobe_OpacityMaskFilter);}
	.st4{opacity:0.8;mask:url(#SVGID_1_);}
	.st5{fill:#262626;}
	.st6{fill:none;stroke:#262626;stroke-width:2;stroke-miterlimit:10;}
	.st7{filter:url(#Adobe_OpacityMaskFilter_1_);}
	.st8{opacity:0.8;mask:url(#SVGID_2_);}
	.st9{filter:url(#Adobe_OpacityMaskFilter_2_);}
	.st10{opacity:0.8;mask:url(#SVGID_3_);}
	.st11{filter:url(#Adobe_OpacityMaskFilter_3_);}
	.st12{opacity:0.8;mask:url(#SVGID_4_);}
	.st13{fill:none;stroke:#FFFF00;stroke-width:2;stroke-miterlimit:10;}
	.st14{fill:#FFA081;}
	.st15{fill:none;stroke:#FFF800;stroke-width:2;stroke-miterlimit:10;}
	.st16{enable-background:new    ;}
	.st17{filter:url(#Adobe_OpacityMaskFilter_4_);}
	.st18{opacity:0.15;mask:url(#SVGID_5_);}
	.st19{fill:#FFA081;stroke:#333333;stroke-width:2;stroke-miterlimit:10;}
	.st20{filter:url(#Adobe_OpacityMaskFilter_5_);}
	.st21{opacity:0.5;mask:url(#SVGID_6_);}
	.st22{filter:url(#Adobe_OpacityMaskFilter_6_);}
	.st23{opacity:0.15;}
	.st24{fill:#262626;stroke:#262626;stroke-width:2;stroke-miterlimit:10;}
</style>
<g id="Livello_1">
	<g id="Livello_1_1_">
	</g>
	<g id="Livello_3">
		<path class="st0" d="M396.6,758.4c0,0,54.7,2.6,56.2,0.2c10.7-16.1,2-24.8,0.6-26.4c-13.3-16,4.7-24.1,4.7-27.2
			c0.3-55.4-35.5-326.6-13.4-335.1c0.5-0.2,6.5-2.4,6.2-4.7c-0.4-2.3-4.8-2.4-6-5c-1-2,0.2-4.4,7.8-10.6
			c10.6-8.6,12.2-9.6,12.4-11.7c0.4-5-14.4-7.9-19.4-12.5c-13.3-11.8-4.3-35.7-0.5-44.4c23.5-53.2,121.2-113.4,183.4-109.4
			c4,0.2,65.5-7.9,143.6,28.8c41.4,19.4,59.7,37.6,74.3,71.4c8.5,19.7,9.5,40.7,7.4,49.8c-2.7,11.4-16,13.3-23.7,17.9
			c-4.8,2.9,8.3,6.8,14.8,16c2.2,3.1-8.4,5.9-4.8,9.5c2.5,2.4,6.2,2.7,7.1,4.3c2.5,4.1-0.4,7.1,3.3,4.4
			c18.5-13.9,45.7-22.1,46.3-31.2c2.5-42-5.4-160.9-5.4-160.9S755.4,97.7,640.1,94.8c-84.5-2.1-246.7,87.5-246.7,87.5L396.6,758.4z"
			/>
	</g>
	<g id="Livello_4">
		<path class="st0" d="M897.9,583.5l-1,164.6l-55.4,0.2c0,0-13.8-12.9,1.5-30.8c6.3-7.5-1-16.2-5.5-20.2c-1.9-1.7-2.8-4.2-2.6-6.6
			l8-85.9L897.9,583.5z"/>
	</g>
	<g id="Livello_6">
		<path class="st0" d="M1254.7,660.9c0,0-30.4,25.6-27.1,36.5c1,3.4,6.1,6.8,11.3,7.2c4.3,0.3,9.2-1.3,11.7-3.7
			c2.6-2.5,6.5-13.1-2.5-13.9c-4.2-0.4-6.8,2.2-6.5,8.1"/>
		<path class="st0" d="M1252.8,748.2c0,0-29.5-24.7-26.2-35.7c1-3.4,6.1-6.8,11.3-7.2c4.3-0.3,9.2,1.3,11.7,3.7
			c2.6,2.5,6.5,13.1-2.5,13.9c-4.2,0.4-6.8-2.2-6.5-8.1"/>
		<path class="st0" d="M1253.5,747.9c0,0,29.5-24.7,26.2-35.7c-1-3.4-6.1-6.8-11.3-7.2c-4.3-0.3-9.2,1.3-11.7,3.7
			c-2.4,2.4-6.5,13.1,2.5,13.9c4.2,0.4,6.8-2.2,6.5-8.1"/>
		<path class="st0" d="M1266,695.2c0.3-6-2.4-8.5-6.5-8.1c-9,0.8-5,11.4-2.5,13.9s7.4,3.9,11.7,3.7c5.4-0.3,10.3-3.8,11.3-7.2
			c3.3-11-27-36.5-27-36.5"/>
		<path class="st0" d="M1199.5,661.2c0,0-30.4,25.6-27.1,36.5c1,3.4,6.1,6.8,11.3,7.2c4.3,0.3,9.2-1.3,11.7-3.7
			c2.4-2.4,6.5-13.1-2.5-13.9c-4.2-0.4-6.8,2.2-6.5,8.1"/>
		<path class="st0" d="M1197.7,748.5c0,0-29.5-24.7-26.2-35.7c1-3.4,6.1-6.8,11.3-7.2c4.3-0.3,9.2,1.3,11.7,3.7
			c2.5,2.4,6.5,13.1-2.5,13.9c-4.2,0.4-6.8-2.2-6.5-8.1"/>
		<path class="st0" d="M1198.4,748.2c0,0,29.5-24.7,26.2-35.7c-1-3.4-6.1-6.8-11.3-7.2c-4.3-0.3-9.2,1.3-11.7,3.7
			c-2.6,2.5-6.5,13.1,2.5,13.9c4.2,0.4,6.8-2.2,6.5-8.1"/>
		<path class="st0" d="M1197.9,661.1c0,0,30.3,25.5,27,36.5c-1,3.4-6.1,6.8-11.3,7.2c-4.3,0.3-9.2-1.3-11.7-3.7
			c-2.5-2.4-6.5-13.1,2.5-13.9c4.2-0.4,6.8,2.2,6.5,8.1"/>
		<path class="st0" d="M1144.6,661.6c0,0-30.4,25.6-27.1,36.5c1,3.4,6.1,6.8,11.3,7.2c4.3,0.3,9.2-1.3,11.7-3.7
			c2.4-2.4,6.5-13.1-2.5-13.9c-4.2-0.4-6.8,2.2-6.5,8.1"/>
		<path class="st0" d="M1142.7,748.9c0,0-29.5-24.7-26.2-35.7c1-3.4,6.1-6.8,11.3-7.2c4.3-0.3,9.2,1.3,11.7,3.7
			c2.4,2.4,6.5,13.1-2.5,13.9c-4.2,0.4-6.8-2.2-6.5-8.1"/>
		<path class="st0" d="M1143.5,748.7c0,0,29.5-24.7,26.2-35.7c-1-3.4-6.1-6.8-11.3-7.2c-4.3-0.3-9.2,1.3-11.7,3.7
			c-2.4,2.4-6.5,13.1,2.5,13.9c4.2,0.4,6.8-2.2,6.5-8.1"/>
		<path class="st0" d="M1143,661.5c0,0,30.3,25.5,27,36.5c-1,3.4-6.1,6.8-11.4,7.2c-4.3,0.3-9.2-1.3-11.6-3.7
			c-2.6-2.5-6.5-13.1,2.5-13.9c4.2-0.4,6.8,2.2,6.5,8.1"/>
		<path class="st0" d="M1089.9,661.1c0,0-30.4,25.6-27.1,36.5c1,3.4,6.1,6.8,11.3,7.2c4.3,0.3,9.2-1.3,11.7-3.7
			c2.4-2.4,6.5-13.1-2.5-13.9c-4.2-0.4-6.8,2.2-6.5,8.1"/>
		<path class="st0" d="M1088,748.4c0,0-29.5-24.7-26.2-35.7c1-3.4,6.1-6.8,11.4-7.2c4.3-0.3,9.2,1.3,11.6,3.7
			c2.4,2.4,6.5,13.1-2.5,13.9c-4.2,0.4-6.8-2.2-6.5-8.1"/>
		<path class="st0" d="M1088.8,748.1c0,0,29.5-24.7,26.2-35.7c-1-3.4-6.1-6.8-11.3-7.2c-4.3-0.3-9.2,1.3-11.7,3.7
			c-2.4,2.4-6.5,13.1,2.5,13.9c4.2,0.4,6.8-2.2,6.5-8.1"/>
		<path class="st0" d="M1088.3,661c0,0,30.3,25.5,27,36.5c-1,3.4-6.1,6.8-11.3,7.2c-4.3,0.3-9.2-1.3-11.7-3.7
			c-2.4-2.4-6.5-13.1,2.5-13.9c4.2-0.4,6.8,2.2,6.5,8.1"/>
		<path class="st0" d="M1036,661.1c0,0-30.4,25.6-27.1,36.5c1,3.4,6.1,6.8,11.3,7.2c4.3,0.3,9.2-1.3,11.7-3.7
			c2.4-2.4,6.5-13.1-2.5-13.9c-4.2-0.4-6.8,2.2-6.5,8.1"/>
		<path class="st0" d="M1034.1,748.4c0,0-29.5-24.7-26.2-35.7c1-3.4,6.1-6.8,11.3-7.2c4.3-0.3,9.2,1.3,11.7,3.7
			c2.5,2.4,6.5,13.1-2.5,13.9c-4.2,0.4-6.8-2.2-6.5-8.1"/>
		<path class="st0" d="M1034.8,748.1c0,0,29.5-24.7,26.2-35.7c-1-3.4-6.1-6.8-11.3-7.2c-4.3-0.3-9.2,1.3-11.7,3.7
			c-2.4,2.4-6.5,13.1,2.5,13.9c4.2,0.4,6.8-2.2,6.5-8.1"/>
		<path class="st0" d="M1034.4,661c0,0,30.3,25.5,27,36.5c-1,3.4-6.1,6.8-11.3,7.2c-4.3,0.3-9.2-1.3-11.7-3.7s-6.5-13.1,2.5-13.9
			c4.2-0.4,6.8,2.2,6.5,8.1"/>
		<path class="st0" d="M981.1,661.1c0,0-30.4,25.6-27.1,36.5c1,3.4,6.1,6.8,11.4,7.2c4.3,0.3,9.2-1.3,11.6-3.7
			c2.4-2.4,6.5-13.1-2.5-13.9c-4.2-0.4-6.8,2.2-6.5,8.1"/>
		<path class="st0" d="M979.2,748.4c0,0-29.5-24.7-26.2-35.7c1-3.4,6.1-6.8,11.3-7.2c4.3-0.3,9.2,1.3,11.7,3.7
			c2.6,2.5,6.5,13.1-2.5,13.9c-4.2,0.4-6.8-2.2-6.5-8.1"/>
		<path class="st0" d="M980,748.1c0,0,29.5-24.7,26.2-35.7c-1-3.4-6.1-6.8-11.3-7.2c-4.3-0.3-9.2,1.3-11.7,3.7s-6.5,13.1,2.5,13.9
			c4.2,0.4,6.8-2.2,6.5-8.1"/>
		<path class="st0" d="M979.5,661c0,0,30.3,25.5,27,36.5c-1,3.4-6.1,6.8-11.3,7.2c-4.3,0.3-9.2-1.3-11.7-3.7s-6.5-13.1,2.5-13.9
			c4.2-0.4,6.8,2.2,6.5,8.1"/>
		<line class="st0" x1="951.4" y1="748.1" x2="1280.5" y2="748.1"/>
		<line class="st0" x1="952.2" y1="648.2" x2="1281.3" y2="648.2"/>
		<path class="st0" d="M952.2,759.5V590.9"/>
		<line class="st0" x1="1007.1" y1="759.5" x2="1007.1" y2="578.7"/>
		<line class="st0" x1="1061.9" y1="759.5" x2="1061.9" y2="561.6"/>
		<line class="st0" x1="1116.8" y1="759.5" x2="1117.6" y2="540.2"/>
		<line class="st0" x1="1170.8" y1="759.5" x2="1170.8" y2="516.5"/>
		<line class="st0" x1="1226.4" y1="762" x2="1226.4" y2="480.5"/>
		<path class="st0" d="M1280.5,759.5v-338"/>
		<path class="st0" d="M952.7,598.2c0,0,256.3-17.4,327.2-161.2"/>
		<path class="st0" d="M1071.8,509.2"/>
		<path class="st0" d="M1144.6,624"/>
		<path class="st0" d="M1007.6,629.2c6,7.4,15.4,11.3,24.9,10c16.4-2,30.2-18.8,30.2-18.8s2.6,17.2,21.9,14.7
			c25.3-3.2,32.2-28.3,32.2-28.3c0.3,0,8.1,15.2,25.8,15.5c14.8,0.3,28.7-35.8,28.7-35.8s9.7,22.9,23,21.4
			c13.3-1.5,26.3-14.1,32.8-54c0,0-0.1,35.4,25.6,39.9c26,4.5,27.7-98.6,27.7-98.6c-33.3,58.4-99.4,92.2-163.7,111.7
			c-84.2,25.6-165.3,26.6-165.3,26.6"/>
		<path class="st0" d="M952.9,633.5c0,0,11.5,9.5,27.1,8.4c9.5-0.8,18.5-4.8,25.4-11.4"/>
		<line class="st0" x1="1254.2" y1="594.3" x2="1253.4" y2="660.5"/>
		<line class="st0" x1="1197.7" y1="607.4" x2="1197.7" y2="661.3"/>
		<line class="st0" x1="1143.8" y1="622.1" x2="1143.8" y2="662.2"/>
		<line class="st0" x1="1088.9" y1="634.4" x2="1088.9" y2="661.3"/>
		<line class="st0" x1="1034.9" y1="639.3" x2="1034.9" y2="661.3"/>
		<line class="st0" x1="980.1" y1="642.6" x2="980.1" y2="661.3"/>
		<path class="st0" d="M1119.6,723.9"/>
		<path class="st0" d="M44.3,661.7c0,0,30.4,25.6,27.1,36.5c-1,3.4-6.1,6.8-11.4,7.2c-4.3,0.3-9.2-1.3-11.7-3.7
			c-2.5-2.4-6.5-13.1,2.5-13.9c4.2-0.4,6.8,2.2,6.5,8.1"/>
		<path class="st0" d="M46.2,749.1c0,0,29.5-24.7,26.2-35.7c-1-3.4-6.1-6.8-11.4-7.2c-4.3-0.3-9.2,1.3-11.7,3.7
			c-2.5,2.4-6.5,13.1,2.5,13.9c4.2,0.4,6.8-2.2,6.5-8.1"/>
		<path class="st0" d="M45.4,748.8c0,0-29.5-24.7-26.2-35.7c1-3.4,6.1-6.8,11.4-7.2c4.3-0.3,9.2,1.3,11.7,3.7s6.5,13.1-2.5,13.9
			c-4.2,0.4-6.8-2.2-6.5-8.1"/>
		<path class="st0" d="M32.9,696.1c-0.3-6,2.4-8.5,6.5-8.1c9,0.8,5,11.4,2.5,13.9c-2.5,2.5-7.4,3.9-11.7,3.7
			c-5.4-0.3-10.3-3.8-11.4-7.2c-3.2-11.1,27.1-36.6,27.1-36.6"/>
		<path class="st0" d="M99.4,662c0,0,30.4,25.6,27.1,36.5c-1,3.4-6.1,6.8-11.4,7.2c-4.3,0.3-9.2-1.3-11.7-3.7
			c-2.6-2.5-6.5-13.1,2.5-13.9c4.2-0.4,6.8,2.2,6.5,8.1"/>
		<path class="st0" d="M101.2,749.3c0,0,29.5-24.7,26.2-35.7c-1-3.4-6.1-6.8-11.4-7.2c-4.3-0.3-9.2,1.3-11.7,3.7s-6.5,13.1,2.5,13.9
			c4.2,0.4,6.8-2.2,6.5-8.1"/>
		<path class="st0" d="M100.4,749c0,0-29.5-24.7-26.2-35.7c1-3.4,6.1-6.8,11.4-7.2c4.3-0.3,9.2,1.3,11.7,3.7
			c2.5,2.4,6.5,13.1-2.5,13.9c-4.2,0.4-6.8-2.2-6.5-8.1"/>
		<path class="st0" d="M100.9,661.9c0,0-30.3,25.5-27,36.5c1,3.4,6.1,6.8,11.4,7.2c4.3,0.3,9.2-1.3,11.7-3.7
			c2.5-2.4,6.5-13.1-2.5-13.9c-4.2-0.4-6.8,2.2-6.5,8.1"/>
		<path class="st0" d="M154.4,662.5c0,0,30.4,25.6,27.1,36.5c-1,3.4-6.1,6.8-11.4,7.2c-4.3,0.3-9.2-1.3-11.6-3.7
			c-2.6-2.5-6.5-13.1,2.5-13.9c4.2-0.4,6.8,2.2,6.5,8.1"/>
		<path class="st0" d="M156.3,749.8c0,0,29.5-24.7,26.2-35.7c-1-3.4-6.1-6.8-11.4-7.2c-4.3-0.3-9.2,1.3-11.7,3.7
			c-2.5,2.4-6.5,13.1,2.5,13.9c4.2,0.4,6.8-2.2,6.5-8.1"/>
		<path class="st0" d="M155.5,749.5c0,0-29.5-24.7-26.2-35.7c1-3.4,6.1-6.8,11.4-7.2c4.3-0.3,9.2,1.3,11.6,3.7
			c2.4,2.4,6.5,13.1-2.5,13.9c-4.2,0.4-6.8-2.2-6.5-8.1"/>
		<path class="st0" d="M155.9,662.4c0,0-30.3,25.5-27,36.5c1,3.4,6.1,6.8,11.4,7.2c4.3,0.3,9.2-1.3,11.7-3.7
			c2.5-2.4,6.5-13.1-2.5-13.9c-4.2-0.4-6.8,2.2-6.5,8.1"/>
		<path class="st0" d="M209.1,661.9c0,0,30.4,25.6,27.1,36.5c-1,3.4-6.1,6.8-11.4,7.2c-4.3,0.3-9.2-1.3-11.7-3.7
			c-2.6-2.5-6.5-13.1,2.5-13.9c4.2-0.4,6.8,2.2,6.5,8.1"/>
		<path class="st0" d="M211,749.2c0,0,29.5-24.7,26.2-35.7c-1-3.4-6.1-6.8-11.4-7.2c-4.3-0.3-9.2,1.3-11.7,3.7s-6.5,13.1,2.5,13.9
			c4.2,0.4,6.8-2.2,6.5-8.1"/>
		<path class="st0" d="M210.2,748.9c0,0-29.5-24.7-26.2-35.7c1-3.4,6.1-6.8,11.3-7.2c4.3-0.3,9.2,1.3,11.7,3.7
			c2.5,2.4,6.5,13.1-2.5,13.9c-4.2,0.4-6.8-2.2-6.5-8.1"/>
		<path class="st0" d="M210.7,661.8c0,0-30.3,25.5-27,36.5c1,3.4,6.1,6.8,11.3,7.2c4.3,0.3,9.2-1.3,11.7-3.7
			c2.6-2.5,6.5-13.1-2.5-13.9c-4.2-0.4-6.8,2.2-6.5,8.1"/>
		<path class="st0" d="M263,661.9c0,0,30.4,25.6,27.1,36.5c-1,3.4-6.1,6.8-11.4,7.2c-4.3,0.3-9.2-1.3-11.7-3.7
			c-2.6-2.5-6.5-13.1,2.5-13.9c4.2-0.4,6.8,2.2,6.5,8.1"/>
		<path class="st0" d="M264.9,749.2c0,0,29.5-24.7,26.2-35.7c-1-3.4-6.1-6.8-11.4-7.2c-4.3-0.3-9.2,1.3-11.7,3.7s-6.5,13.1,2.5,13.9
			c4.2,0.4,6.8-2.2,6.5-8.1"/>
		<path class="st0" d="M264.1,748.9c0,0-29.5-24.7-26.2-35.7c1-3.4,6.1-6.8,11.4-7.2c4.3-0.3,9.2,1.3,11.7,3.7
			c2.5,2.4,6.5,13.1-2.5,13.9c-4.2,0.4-6.8-2.2-6.5-8.1"/>
		<path class="st0" d="M264.6,661.8c0,0-30.3,25.5-27,36.5c1,3.4,6.1,6.8,11.4,7.2c4.3,0.3,9.2-1.3,11.7-3.7
			c2.6-2.5,6.5-13.1-2.5-13.9c-4.2-0.4-6.8,2.2-6.5,8.1"/>
		<path class="st0" d="M317.9,661.9c0,0,30.4,25.6,27.1,36.5c-1,3.4-6.1,6.8-11.4,7.2c-4.3,0.3-9.2-1.3-11.7-3.7
			c-2.6-2.5-6.5-13.1,2.5-13.9c4.2-0.4,6.8,2.2,6.5,8.1"/>
		<path class="st0" d="M319.8,749.2c0,0,29.5-24.7,26.2-35.7c-1-3.4-6.1-6.8-11.4-7.2c-4.3-0.3-9.2,1.3-11.7,3.7s-6.5,13.1,2.5,13.9
			c4.2,0.4,6.8-2.2,6.5-8.1"/>
		<path class="st0" d="M319,748.9c0,0-29.5-24.7-26.2-35.7c1-3.4,6.1-6.8,11.4-7.2c4.3-0.3,9.2,1.3,11.7,3.7
			c2.5,2.4,6.5,13.1-2.5,13.9c-4.2,0.4-6.8-2.2-6.5-8.1"/>
		<path class="st0" d="M319.5,661.8c0,0-30.3,25.5-27,36.5c1,3.4,6.1,6.8,11.4,7.2c4.3,0.3,9.2-1.3,11.6-3.7
			c2.6-2.5,6.5-13.1-2.5-13.9c-4.2-0.4-6.8,2.2-6.5,8.1"/>
		<line class="st0" x1="347.5" y1="748.9" x2="18.5" y2="748.9"/>
		<line class="st0" x1="346.7" y1="649.1" x2="17.7" y2="649.1"/>
		<path class="st0" d="M346.7,760.4V591.8"/>
		<line class="st0" x1="291.9" y1="760.4" x2="291.9" y2="579.5"/>
		<line class="st0" x1="237" y1="760.4" x2="237" y2="562.3"/>
		<line class="st0" x1="182.2" y1="760.4" x2="181.4" y2="541.1"/>
		<line class="st0" x1="128.2" y1="760.4" x2="128.2" y2="517.3"/>
		<line class="st0" x1="72.6" y1="762.8" x2="72.6" y2="481.3"/>
		<path class="st0" d="M18.5,760.4V422.4"/>
		<path class="st0" d="M346.2,599c0,0-256.3-17.4-327.2-161.2"/>
		<path class="st0" d="M227.2,510"/>
		<path class="st0" d="M154.4,624.8"/>
		<path class="st0" d="M291.4,630.1c-6,7.5-15.4,11.3-24.9,10c-16.4-2-30.2-18.8-30.2-18.8s-2.6,17.2-21.9,14.7
			c-25.3-3.2-32.2-28.2-32.2-28.2c-0.3,0-8.1,15.2-25.9,15.5c-14.8,0.3-28.7-35.8-28.7-35.8s-9.7,22.9-23,21.4s-26.2-14.1-32.8-54.1
			c0,0,0.1,35.4-25.6,39.9c-26,4.5-27.7-98.6-27.7-98.6c33.3,58.4,99.4,92.3,163.7,111.7c84.3,25.6,165.3,26.6,165.3,26.6"/>
		<path class="st0" d="M346.1,634.4c0,0-11.5,9.5-27.1,8.4c-9.5-0.8-18.5-4.8-25.4-11.4"/>
		<line class="st0" x1="44.7" y1="595.1" x2="45.5" y2="661.3"/>
		<line class="st0" x1="101.1" y1="608.2" x2="101.1" y2="662.2"/>
		<line class="st0" x1="155.2" y1="623" x2="155.2" y2="663"/>
		<line class="st0" x1="210.1" y1="635.2" x2="210.1" y2="662.2"/>
		<line class="st0" x1="264" y1="640.1" x2="264" y2="662.2"/>
		<line class="st0" x1="318.9" y1="643.4" x2="318.9" y2="662.2"/>
		<path class="st0" d="M179.5,724.8"/>
	</g>
	<g id="bol_finestra">
		<polygon class="st1" points="1055.2,327.4 1000.3,339.9 1000.3,167.5 1055.2,155.1 		"/>
		<polygon class="st1" points="1177.2,327.5 1232.1,339.9 1232.1,167.6 1177.2,155.1 		"/>
		<rect x="1060.6" y="155" class="st1" width="54.3" height="172.3"/>
		<rect x="1118.1" y="154.7" class="st1" width="54.3" height="172.3"/>
	</g>
	<g id="Livello_8">
		<g>
			<g>
				<g>
					<g>
						<rect x="1063.7" y="158.9" class="st2" width="47.3" height="165.8"/>
						<rect x="1063.7" y="158.9" class="st1" width="47.3" height="165.8"/>
					</g>
					
						<image style="overflow:visible;enable-background:new    ;" width="50" height="170" xlink:href="E316EF43.png"  transform="matrix(1 0 0 1 0 769)">
					</image>
				</g>
			</g>
			<defs>
				<filter id="Adobe_OpacityMaskFilter" filterUnits="userSpaceOnUse" x="1062" y="157.9" width="50" height="168.1">
					
						<feColorMatrix  type="matrix" values="-1 0 0 0 1  0 -1 0 0 1  0 0 -1 0 1  0 0 0 1 0" color-interpolation-filters="sRGB" result="source"/>
				</filter>
			</defs>
			<mask maskUnits="userSpaceOnUse" x="1062" y="157.9" width="50" height="168.1" id="SVGID_1_">
				<g class="st3">
					<image style="overflow:visible;" width="55" height="173" xlink:href="E316EF44.jpg"  transform="matrix(1 0 0 1 1060 155)">
					</image>
				</g>
			</mask>
			<g class="st4">
				<g>
					<g>
						<rect x="1063.7" y="158.9" class="st5" width="47.3" height="165.8"/>
						<rect x="1063.7" y="158.9" class="st6" width="47.3" height="165.8"/>
					</g>
					<path class="st5" d="M1062,158c0,3.7,0,7.3,0,11c0,10.7,0,21.3,0,32c0,37.7,0,75.3,0,113c0,4,0,8,0,12h50c0-4,0-8,0-12
						c0-10.7,0-21.3,0-32c0-37.7,0-75.3,0-113c0-3.7,0-7.3,0-11H1062z M1101,184.5c0,5.3,0,10.7,0,16c0,19.3,0,38.7,0,58
						c0,9.7,0,19.3,0,29c0,4.8,0,9.7,0,14.5c0,6.5-0.5,9.6-7,12h-14c-3.7-1.9-4.9-2.3-6-6c-0.8-2.8-1-5.3-1-8.5c0-5.3,0-10.7,0-16
						c0-19.5,0-39,0-58.5c0-9.8,0-19.7,0-29.5c0-4.8,0-9.7,0-14.5c0-2.5-0.1-5.5,1-7.5c1.3-2.4,3.3-3.2,6-4.5h15
						C1102,172.5,1101,177.5,1101,184.5z"/>
				</g>
			</g>
		</g>
		<g>
			<g>
				<g>
					<g>
						<polygon class="st2" points="1051.1,324.9 1003.8,335.7 1003.8,169.9 1051.1,159.2 						"/>
						<polygon class="st1" points="1051.1,324.9 1003.8,335.7 1003.8,169.9 1051.1,159.2 						"/>
					</g>
					
						<image style="overflow:visible;enable-background:new    ;" width="51" height="181" xlink:href="E316EF41.png"  transform="matrix(1 0 0 1 0 769)">
					</image>
				</g>
			</g>
			<defs>
				<filter id="Adobe_OpacityMaskFilter_1_" filterUnits="userSpaceOnUse" x="1002.8" y="158" width="50.2" height="180">
					
						<feColorMatrix  type="matrix" values="-1 0 0 0 1  0 -1 0 0 1  0 0 -1 0 1  0 0 0 1 0" color-interpolation-filters="sRGB" result="source"/>
				</filter>
			</defs>
			<mask maskUnits="userSpaceOnUse" x="1002.8" y="158" width="50.2" height="180" id="SVGID_2_">
				<g class="st7">
					<image style="overflow:visible;" width="55" height="185" xlink:href="E316EF4D.jpg"  transform="matrix(1 0 0 1 1000 155)">
					</image>
				</g>
			</mask>
			<g class="st8">
				<g>
					<g>
						<polygon class="st5" points="1051.1,324.9 1003.8,335.7 1003.8,169.9 1051.1,159.2 						"/>
						<polygon class="st6" points="1051.1,324.9 1003.8,335.7 1003.8,169.9 1051.1,159.2 						"/>
					</g>
					<path class="st5" d="M1051,158c-1.3,0.7-2.7,1.3-4,2h-5c-1.3,0.7-2.7,1.3-4,2h-5c-2.7,1-5.3,2-8,3h-5c-1.3,0.7-2.7,1.3-4,2h-5
						c-1.8,0.7-5.5,1.1-7,2.2c-1.5,1.2-1,3.5-1,5.8c0,10.7,0,21.3,0,32c0,38,0,76,0,114c0,2.3,0,4.7,0,7c0,1,0,2,0,3s0,2,0,3
						c0,0.7,0,1.3,0,2s0,1.3,0,2h1c1.3-0.7,2.7-1.3,4-2h5c1.3-0.7,2.7-1.3,4-2h5c2.7-1,5.3-2,8-3h5c2.7-1,5.3-2,8-3h5
						c4.4-1.7,5-2.4,5-7c0-0.3,0-0.7,0-1c0-10.7,0-21.3,0-32c0-37.7,0-75.3,0-113c0-2.7,0-5.3,0-8c0-0.7,0-1.3,0-2c0-1,0-2,0-3
						c0-0.7,0-1.3,0-2s0-1.3,0-2H1051z M1041,191.5c0,5.3,0,10.7,0,16c0,19.5,0,39,0,58.5c0,9.8,0,19.7,0,29.5c0,4.7,0.5,9.8,0,14.5
						c-0.7,6.2-5.8,7.4-11,10h-5c0,0.3,0,0.7,0,1h-7c-4.8-2-3-12-3-16.5c0-5.7,0-11.3,0-17c0-19.8,0-39.7,0-59.5
						c0-9.8,0-19.7,0-29.5c0-4.5-1.1-10.7,0-15c1.4-5.5,9.2-6.7,14-8.5h10C1042,179.6,1041,185.9,1041,191.5z"/>
				</g>
			</g>
		</g>
		<g>
			<g>
				<g>
					<g>
						<polygon class="st2" points="1180.7,325.4 1228,335.6 1228,169.8 1180.7,159.7 						"/>
						<polygon class="st1" points="1180.7,325.4 1228,335.6 1228,169.8 1180.7,159.7 						"/>
					</g>
					
						<image style="overflow:visible;enable-background:new    ;" width="50" height="181" xlink:href="E316EF47.png"  transform="matrix(1 0 0 1 0 769)">
					</image>
				</g>
			</g>
			<defs>
				<filter id="Adobe_OpacityMaskFilter_2_" filterUnits="userSpaceOnUse" x="1179" y="158.5" width="50.2" height="178.5">
					
						<feColorMatrix  type="matrix" values="-1 0 0 0 1  0 -1 0 0 1  0 0 -1 0 1  0 0 0 1 0" color-interpolation-filters="sRGB" result="source"/>
				</filter>
			</defs>
			<mask maskUnits="userSpaceOnUse" x="1179" y="158.5" width="50.2" height="178.5" id="SVGID_3_">
				<g class="st9">
					<image style="overflow:visible;" width="56" height="183" xlink:href="E316EF4C.jpg"  transform="matrix(1 0 0 1 1176 156)">
					</image>
				</g>
			</mask>
			<g class="st10">
				<g>
					<g>
						<polygon class="st5" points="1180.7,325.4 1228,335.6 1228,169.8 1180.7,159.7 						"/>
						<polygon class="st6" points="1180.7,325.4 1228,335.6 1228,169.8 1180.7,159.7 						"/>
					</g>
					<path class="st5" d="M1229,170.5c-0.7-1.6-2.1-1.8-4-2.5h-5c-1.3-0.7-2.7-1.3-4-2h-5c0-0.3,0-0.7,0-1h-5c-1.3-0.7-2.7-1.3-4-2
						h-5c0-0.3,0-0.7,0-1h-5c-1.3-0.7-2.7-1.3-4-2h-5c0-0.3,0-0.7,0-1h-4c0,0.3,0,0.7,0,1c0,0.7,0,1.3,0,2c0,0.3,0,0.7,0,1
						c0,0.7,0,1.3,0,2c0,0.3,0,0.7,0,1c0,0.7,0,1.3,0,2c0,2.3,0,4.7,0,7c0,10.7,0,21.3,0,32c0,38,0,76,0,114c0,3.8-0.5,5.2,3,7h5
						c1.3,0.7,2.7,1.3,4,2h5c1.3,0.7,2.7,1.3,4,2h5c0,0.3,0,0.7,0,1h5c1.3,0.7,2.7,1.3,4,2h5c0,0.3,0,0.7,0,1h5c0,0.3,0,0.7,0,1h5
						c0-0.3,0-0.7,0-1s0-0.7,0-1c0-0.7,0-1.3,0-2c0-0.3,0-0.7,0-1c0-0.7,0-1.3,0-2s0-1.3,0-2c0-2.3,0-4.7,0-7c0-10.7,0-21.3,0-32
						c0-37.7,0-75.3,0-113c0-0.3,0-0.7,0-1C1229,173.8,1229.5,171.6,1229,170.5z M1207,176c2.6,1.3,6.4,2,8.5,4
						c2.1,2,2.5,5.5,2.5,8.5c0,5.3,0,10.7,0,16c0,19.5,0,39,0,58.5c0,9.8,0,19.7,0,29.5c0,8.5,2.3,21.5-2,28.5h-11c-3-1.1-6-2-9-3.2
						c-3.9-1.5-3.9-2.9-5-6.3c-0.9-2.7-1-5.3-1-8.5c0-2.8,0-5.7,0-8.5c0-20,0-40,0-60c0-10,0-20,0-30c0-5,0-10,0-15
						c0-2.6-0.4-5.5,0-8c0.4-2.6,1.7-4.2,3-6.5h9c0,0.3,0,0.7,0,1H1207z"/>
				</g>
			</g>
		</g>
		<g>
			<g>
				<g>
					<g>
						<rect x="1121.8" y="158.6" class="st2" width="47.3" height="165.8"/>
						<rect x="1121.8" y="158.6" class="st1" width="47.3" height="165.8"/>
					</g>
					
						<image style="overflow:visible;enable-background:new    ;" width="51" height="170" xlink:href="E316EF40.png"  transform="matrix(1 0 0 1 0 769)">
					</image>
				</g>
			</g>
			<defs>
				<filter id="Adobe_OpacityMaskFilter_3_" filterUnits="userSpaceOnUse" x="1120.8" y="157.6" width="50.2" height="168.4">
					
						<feColorMatrix  type="matrix" values="-1 0 0 0 1  0 -1 0 0 1  0 0 -1 0 1  0 0 0 1 0" color-interpolation-filters="sRGB" result="source"/>
				</filter>
			</defs>
			<mask maskUnits="userSpaceOnUse" x="1120.8" y="157.6" width="50.2" height="168.4" id="SVGID_4_">
				<g class="st11">
					<image style="overflow:visible;" width="55" height="173" xlink:href="E316EF59.jpg"  transform="matrix(1 0 0 1 1118 155)">
					</image>
				</g>
			</mask>
			<g class="st12">
				<g>
					<g>
						<rect x="1121.8" y="158.6" class="st5" width="47.3" height="165.8"/>
						<rect x="1121.8" y="158.6" class="st6" width="47.3" height="165.8"/>
					</g>
					<path class="st5" d="M1121,158c0,4,0,8,0,12c0,10.7,0,21.3,0,32c0,37.7,0,75.3,0,113c0,3.7,0,7.3,0,11h50c0-3.7,0-7.3,0-11
						c0-10.7,0-21.3,0-32c0-37.7,0-75.3,0-113c0-4,0-8,0-12H1121z M1159,186c0,5.3,0,10.7,0,16c0,19.2,0,38.3,0,57.5
						c0,9.5,0,19,0,28.5c0,4.7,0,9.3,0,14c0,6,0.8,10.1-5,13h-16c-6-4-5-9.4-5-16c0-5.3,0-10.7,0-16c0-18.8,0-37.7,0-56.5
						c0-9.5,0-19,0-28.5c0-4.8,0-9.7,0-14.5c0-2.3-0.3-4.8,0-7c0.4-3,2.3-4.7,5-6.5h16C1160.1,174,1159,179.3,1159,186z"/>
				</g>
			</g>
		</g>
		<path class="st0" d="M995.6,413.6c0,0,34.7,37.7,94.2,37.7c59.5,0,148.8-71.4,148.8-71.4v-33.5l-66.2-15.2h-117.2l-63.4,13.8v48.9
			"/>
		<path class="st1" d="M967.4,737.4"/>
		<path class="st0" d="M1060.6,71.3l178,25.3v66.1l-64.1-13.9l-118.9,0.7l-64.1,13.9l0.2-49.6c68.9-43-126.5-112.4-126.5-112.4"/>
		<g>
			
				<image style="overflow:visible;opacity:0.75;" width="82" height="81" xlink:href="E316EF46.png"  transform="matrix(1 0 0 1 602 91)">
			</image>
			<g>
				<circle class="st13" cx="642.9" cy="131.3" r="24.3"/>
			</g>
		</g>
		<g>
			
				<image style="overflow:visible;opacity:0.75;" width="66" height="65" xlink:href="D25094B6.png"  transform="matrix(1 0 0 1 610 102)">
			</image>
			<g>
				<ellipse class="st13" cx="642.9" cy="134.8" rx="16.4" ry="15.9"/>
			</g>
		</g>
		<g>
			
				<image style="overflow:visible;opacity:0.75;" width="56" height="56" xlink:href="D25094B7.png"  transform="matrix(1 0 0 1 615 109)">
			</image>
			<g>
				<ellipse class="st13" cx="642.7" cy="137" rx="11.6" ry="11"/>
			</g>
		</g>
		<g>
			
				<image style="overflow:visible;opacity:0.75;" width="49" height="49" xlink:href="D25094B2.png"  transform="matrix(1 0 0 1 619 113)">
			</image>
			<g>
				<circle class="st14" cx="643.7" cy="137.4" r="7.9"/>
				<circle class="st15" cx="643.7" cy="137.4" r="7.9"/>
			</g>
		</g>
		<g>
			
				<image style="overflow:visible;opacity:0.75;" width="81" height="82" xlink:href="D25094B3.png"  transform="matrix(1 0 0 1 1071 322)">
			</image>
			<g>
				<circle class="st13" cx="1111.5" cy="363.1" r="24.3"/>
			</g>
		</g>
		<g>
			
				<image style="overflow:visible;opacity:0.75;" width="65" height="65" xlink:href="D25094AE.png"  transform="matrix(1 0 0 1 1079 327)">
			</image>
			<g>
				
					<ellipse transform="matrix(1.745293e-03 -1 1 1.745293e-03 749.9867 1470.6689)" class="st13" cx="1111.6" cy="359.7" rx="15.9" ry="16.4"/>
			</g>
		</g>
		<g>
			
				<image style="overflow:visible;opacity:0.75;" width="56" height="55" xlink:href="D25094AD.png"  transform="matrix(1 0 0 1 1084 330)">
			</image>
			<g>
				
					<ellipse transform="matrix(1.745293e-03 -1 1 1.745293e-03 752.3453 1468.5652)" class="st13" cx="1111.7" cy="357.5" rx="11.1" ry="11.6"/>
			</g>
		</g>
		<g>
			
				<image style="overflow:visible;opacity:0.75;" width="49" height="48" xlink:href="D25094D2.png"  transform="matrix(1 0 0 1 1086 333)">
			</image>
			<g>
				<circle class="st14" cx="1110.7" cy="357" r="7.9"/>
				<circle class="st15" cx="1110.7" cy="357" r="7.9"/>
			</g>
		</g>
	</g>
	<g id="finestra">
		<g>
			<g>
				<path class="st0" d="M305.9,433.8c0,0-34.7,37.7-94.2,37.7S62.9,400.1,62.9,400.1v-33.5c0.8-92.3,41-126,22.1-147.8
					c-1.5-1.8-16.2-10.8-12.4-17c5.5-8.7-10.4-19.6-10.4-19.6s44.6-42.7,122-42.7s247-111.1,247-111.1
					c0,11.1-103.6,71.9-125.2,185.2s5.9,148.4,0.2,220.5"/>
				<g>
					<g>
						<path class="st2" d="M296.5,428.9c0,0-35.9,20.3-87.2,20.3S78,387.4,78,387.4v-33.4c0.7-83.8,38.3-114.5,22-134.3
							c-1.3-1.6-14-9.8-10.6-15.5c4.7-7.9-9-17.9-9-17.9s38.5-33.8,105.1-33.8s170.6-63.8,170.6-63.8c0,10.1-41,23.2-59.6,126.2
							C277.9,317.9,301.3,363.5,296.5,428.9"/>
						<path class="st1" d="M296.5,428.9c0,0-35.9,20.3-87.2,20.3S78,387.4,78,387.4v-33.4c0.7-83.8,38.3-114.5,22-134.3
							c-1.3-1.6-14-9.8-10.6-15.5c4.7-7.9-9-17.9-9-17.9s38.5-33.8,105.1-33.8s170.6-63.8,170.6-63.8c0,10.1-41,23.2-59.6,126.2
							C277.9,317.9,301.3,363.5,296.5,428.9"/>
					</g>
					<g class="st16">
						<g>
							
								<image style="overflow:visible;" width="283" height="367" xlink:href="E316EF4E.png"  transform="matrix(0.9919 0 0 0.9919 76.4448 86.3104)">
							</image>
						</g>
						<defs>
							<filter id="Adobe_OpacityMaskFilter_4_" filterUnits="userSpaceOnUse" x="76.7" y="87" width="280.3" height="363">
								
									<feColorMatrix  type="matrix" values="-1 0 0 0 1  0 -1 0 0 1  0 0 -1 0 1  0 0 0 1 0" color-interpolation-filters="sRGB" result="source"/>
							</filter>
						</defs>
						<mask maskUnits="userSpaceOnUse" x="76.7" y="87" width="280.3" height="363" id="SVGID_5_">
							<g class="st17">
								<image style="overflow:visible;" width="285" height="367" xlink:href="D25094D0.jpg"  transform="matrix(1 0 0 1 74 85)">
								</image>
							</g>
						</mask>
						<g class="st18">
							<path class="st5" d="M355,87c-1.2,2.6-6.6,4.6-9,6c-2.9,1.8-6,3.5-9,5c-6.2,3.1-12.2,6.6-18.5,9.8
								c-12.5,6.2-25.1,12-37.5,18.2h-2c-3.7,3.6-10.8,5-15.5,7c-4.9,2.1-9.9,4-15,5.7c-10.1,3.4-20.6,5.6-30.5,9.3h-10
								c0,0.3,0,0.7,0,1h-6c0,0.3,0,0.7,0,1h-11c0,0.3,0,0.7,0,1h-24c0,0.3,0,0.7,0,1h-9c0,0.3,0,0.7,0,1h-6c0,0.3,0,0.7,0,1h-6
								c-3.7,1.4-7.5,2.2-11,4h-4c0,0.3,0,0.7,0,1h-3c0,0.3,0,0.7,0,1h-3c0,0.3,0,0.7,0,1h-3c0,0.3,0,0.7,0,1h-2c0,0.3,0,0.7,0,1h-3
								c0,0.3,0,0.7,0,1h-2c0,0.3,0,0.7,0,1h-3c0,0.3,0,0.7,0,1h-2c-4.9,4.1-12,6.5-17.5,9.8c-3.1,1.8-5.7,3.6-8.5,5.8
								c-3.7,2.8-6.6,3.4-2.5,7.5c2.8,2.8,5.3,5,6.5,8.5c1.1,3.3,0,5.2,0,9c0,7.9,9.1,9.8,13,16c1.3,2,1.7,5.6,2,8
								c0.4,2.7-0.3,4.8-1,7c-1.7,5.2-2.6,10.4-4.5,15.5c-3.7,10.1-7.1,20.2-10.5,30.5c-3.3,9.8-5.3,20-7,30.5
								c-1.6,9.9-3,19.8-3,30.5c0,10.2,0,20.3,0,30.5c0,4.4-1.4,11.7,1.5,14.8c3.9,4.2,10.8,6.6,15.5,9.8
								c10.1,6.7,20.1,13.5,30.5,19.8c5,3,10.2,5.5,15,8.8c4.8,3.3,11.1,4.3,15.5,8h2c0,0.3,0,0.7,0,1h2c0,0.3,0,0.7,0,1h3
								c3.9,3.8,11.2,4.6,16,7h3c0,0.3,0,0.7,0,1h4c0,0.3,0,0.7,0,1h4c0,0.3,0,0.7,0,1h5c0,0.3,0,0.7,0,1h7c0,0.3,0,0.7,0,1h21
								c0-0.3,0-0.7,0-1h11c0-0.3,0-0.7,0-1h7c0-0.3,0-0.7,0-1h6c0-0.3,0-0.7,0-1h5c0-0.3,0-0.7,0-1h5c6.3-2.4,13-4,19-7h3
								c0-0.3,0-0.7,0-1h3c0-0.3,0-0.7,0-1h2c0-0.3,0-0.7,0-1h3c0-0.3,0-0.7,0-1h2c2.1-1.8,7.8-3.1,9-5.5c0.9-1.8,0-6.5,0-8.5
								c0-5.7,0-11.3,0-17c0-5.5,0.8-11.6,0-17c-0.3-1.7-1-2.5-1-4.5c0-1.3,0-2.7,0-4c0-3.1-1-5.2-1-8.5c0-10.3-3-20.2-3-30.5
								c0-3.1-1-5-1-8c0-2.3,0.3-4.8,0-7c-0.7-4.9-1-10.1-1-15.5c0-10.2,0-20.3,0-30.5c0-5.3,0.3-10.2,1-15c0.4-2.6-0.4-5.4,0-8
								c0.2-1,0.9-2.1,1-3.5c0.1-1.1,0-2.3,0-3.5c0-2.8,0.6-5.1,1-8c0.4-2.6,0.6-4.7,1-7.5c0.7-4.9,1.7-10.1,2.5-15
								c0.4-2.6,0.9-5.4,1.5-8c0.3-1.3,0.8-2.2,1-3.5c0.1-0.7-0.1-1.3,0-2c0.1-0.8,0.9-1.5,1-2c0.8-5.2,1.4-10.1,3-15
								c3.4-10.2,6.6-20.4,10-30.5c3.5-10.5,9.8-20,15-30h1c-0.4-3,4.7-7.7,6.5-10c2.5-3.2,4.4-6.4,7.5-9.5c3.4-3.4,5.8-6.8,9-10
								c3.2-3.2,5-5,5-9.5H355z M309.5,135c-1.4,3-2.6,6-4,9c-2.7,5.8-4.5,11.4-6.5,17.5c-2,5.9-4,12-6,18c-2,5.9-3,11.7-4,18
								c-0.2,1.2-1.3,3.2-1.5,4.5c-0.1,1-0.3,2.3-0.5,3.5c-0.2,1.7-0.8,2.5-1,4c-0.1,0.7,0.1,1.3,0,2c-0.1,0.8-0.9,1.5-1,2
								c-0.2,1.3,0.2,2.7,0,4c-0.2,1.7-0.8,2.5-1,4c-0.4,2.8-1,5.2-1,8c0,5.3-2,10.6-2,16c0,5.4-2,10.2-2,15.5c0,21.3,0,42.7,0,64
								c0,5.3,1.3,10.5,2,15.5c0.8,5.5,0.2,10.5,1,16c0.4,2.7,1,5.3,1,8.5c0,3,0.6,5,1,7.5c0.8,5.4,1,10.3,1,16c0,5.3,0,10.7,0,16
								c0,5.3,1.2,11.9-2,16c-3.8,4.9-10.4,6.1-16,8c-5.4,1.8-10.7,3.5-16,5.5h-5c0,0.3,0,0.7,0,1h-5c0,0.3,0,0.7,0,1h-6
								c0,0.3,0,0.7,0,1h-6c0,0.3,0,0.7,0,1h-29c0-0.3,0-0.7,0-1h-5c0-0.3,0-0.7,0-1h-5c-12.9-4.8-25.7-8.8-38-15
								c-12.8-6.4-25.2-13.6-37-21.5c-5.5-3.7-11.2-6.5-16.5-10.2c-6.1-4.2-9.5-8.5-9.5-15.8c0-11.2,0-22.3,0-33.5
								c0-5.8,0.3-11.2,1-16.5c0.8-5.4,1.5-11.3,3-16.5c0.4-1.4,0.8-3.2,1-4.5c0.1-0.7-0.1-1.3,0-2c0.1-1,0.9-1.3,1-2
								c0.5-3.1,1.1-5.2,2-8c1.9-5.6,3.1-11.4,5-17c0.9-2.8,2.3-5.7,3.5-8.5c1.1-2.6,1.7-5.4,3-8c1.3-2.5,1.6-5.8,2.5-8.5
								c0.9-2.6,1.6-5.2,2-8c0.8-5.9,1-11,0-17c-0.2-1.2-1.5-3.3-2-4.5c-0.7-1.6-1.6-2.5-2.5-4c-1.6-2.7-3.6-5.3-5.5-8
								c-3-4.3-4-10.9-4-16.5c0-6.5,8.3-9.6,13.5-12.2c10.7-5.4,22.3-8.1,33.5-12.2h5c0-0.3,0-0.7,0-1h6c0-0.3,0-0.7,0-1h6
								c0-0.3,0-0.7,0-1h8c0-0.3,0-0.7,0-1h24c0-0.3,0-0.7,0-1h10c0-0.3,0-0.7,0-1h6c0-0.3,0-0.7,0-1h5c0-0.3,0-0.7,0-1h5
								c4-1.5,8-2.5,12-4h4c0-0.3,0-0.7,0-1h3c0-0.3,0-0.7,0-1h3c0-0.3,0-0.7,0-1h3c0-0.3,0-0.7,0-1h3c0-0.3,0-0.7,0-1h3
								c0-0.3,0-0.7,0-1h6c16.6-8.3,34.4-13.7,51-22h2C313.7,129,310.7,132.5,309.5,135z"/>
						</g>
					</g>
				</g>
				<path class="st0" d="M272.2,326.9c0,0,11.8,120.7,4.4,129.3"/>
				<path class="st0" d="M87.4,324.6c0,0-11.8,84.3-4.4,90.4"/>
				<line class="st0" x1="427.9" y1="30.3" x2="468.2" y2="1.6"/>
				<circle class="st19" cx="89.9" cy="374.9" r="11.9"/>
				<circle class="st19" cx="269.5" cy="385.8" r="11.9"/>
				<path class="st0" d="M116.7,368.6v20c0,0,31.9,37.4,9,50.7"/>
				<path class="st0" d="M134.1,371.9V392c0,0,30.9,43.5,8,57"/>
				<path class="st0" d="M149,374.9v22c0,0,42.1,47.5,10.9,62.2"/>
				<path class="st0" d="M167.8,377.8v22.8c0,0,42.1,49.3,10.9,64.5"/>
				<path class="st0" d="M190.6,377.8v24.4c0,0,42.1,52.6,10.9,68.8"/>
			</g>
		</g>
		<defs>
			<filter id="Adobe_OpacityMaskFilter_5_" filterUnits="userSpaceOnUse" x="60.6" y="0.8" width="408.2" height="471.7">
				
					<feColorMatrix  type="matrix" values="-1 0 0 0 1  0 -1 0 0 1  0 0 -1 0 1  0 0 0 1 0" color-interpolation-filters="sRGB" result="source"/>
			</filter>
		</defs>
		<mask maskUnits="userSpaceOnUse" x="60.6" y="0.8" width="408.2" height="471.7" id="SVGID_6_">
			<g class="st20">
				<image style="overflow:visible;" width="413" height="477" xlink:href="D25094D7.jpg"  transform="matrix(1 0 0 1 58 -2)">
				</image>
			</g>
		</mask>
		<g class="st21">
			<g>
				<path class="st6" d="M305.9,433.8c0,0-34.7,37.7-94.2,37.7S62.9,400.1,62.9,400.1v-33.5c0.8-92.3,41-126,22.1-147.8
					c-1.5-1.8-16.2-10.8-12.4-17c5.5-8.7-10.4-19.6-10.4-19.6s44.6-42.7,122-42.7s247-111.1,247-111.1
					c0,11.1-103.6,71.9-125.2,185.2s5.9,148.4,0.2,220.5"/>
				<g>
					<g>
						<path class="st5" d="M296.5,428.9c0,0-35.9,20.3-87.2,20.3S78,387.4,78,387.4v-33.4c0.7-83.8,38.3-114.5,22-134.3
							c-1.3-1.6-14-9.8-10.6-15.5c4.7-7.9-9-17.9-9-17.9s38.5-33.8,105.1-33.8s170.6-63.8,170.6-63.8c0,10.1-41,23.2-59.6,126.2
							C277.9,317.9,301.3,363.5,296.5,428.9"/>
						<path class="st6" d="M296.5,428.9c0,0-35.9,20.3-87.2,20.3S78,387.4,78,387.4v-33.4c0.7-83.8,38.3-114.5,22-134.3
							c-1.3-1.6-14-9.8-10.6-15.5c4.7-7.9-9-17.9-9-17.9s38.5-33.8,105.1-33.8s170.6-63.8,170.6-63.8c0,10.1-41,23.2-59.6,126.2
							C277.9,317.9,301.3,363.5,296.5,428.9"/>
					</g>
					<g class="st16">
						<g>
							<path class="st5" d="M355,87c-1.2,2.6-6.6,4.6-9,6c-2.9,1.8-6,3.5-9,5c-6.2,3.1-12.2,6.6-18.5,9.8
								c-12.5,6.2-25.1,12-37.5,18.2h-2c-3.7,3.6-10.8,5-15.5,7c-4.9,2.1-9.9,4-15,5.7c-10.1,3.4-20.6,5.6-30.5,9.3h-10
								c0,0.3,0,0.7,0,1h-6c0,0.3,0,0.7,0,1h-11c0,0.3,0,0.7,0,1h-24c0,0.3,0,0.7,0,1h-9c0,0.3,0,0.7,0,1h-6c0,0.3,0,0.7,0,1h-6
								c-3.7,1.4-7.5,2.2-11,4h-4c0,0.3,0,0.7,0,1h-3c0,0.3,0,0.7,0,1h-3c0,0.3,0,0.7,0,1h-3c0,0.3,0,0.7,0,1h-2c0,0.3,0,0.7,0,1h-3
								c0,0.3,0,0.7,0,1h-2c0,0.3,0,0.7,0,1h-3c0,0.3,0,0.7,0,1h-2c-4.9,4.1-12,6.5-17.5,9.8c-3.1,1.8-5.7,3.6-8.5,5.8
								c-3.7,2.8-6.6,3.4-2.5,7.5c2.8,2.8,5.3,5,6.5,8.5c1.1,3.3,0,5.2,0,9c0,7.9,9.1,9.8,13,16c1.3,2,1.7,5.6,2,8
								c0.4,2.7-0.3,4.8-1,7c-1.7,5.2-2.6,10.4-4.5,15.5c-3.7,10.1-7.1,20.2-10.5,30.5c-3.3,9.8-5.3,20-7,30.5
								c-1.6,9.9-3,19.8-3,30.5c0,10.2,0,20.3,0,30.5c0,4.4-1.4,11.7,1.5,14.8c3.9,4.2,10.8,6.6,15.5,9.8
								c10.1,6.7,20.1,13.5,30.5,19.8c5,3,10.2,5.5,15,8.8c4.8,3.3,11.1,4.3,15.5,8h2c0,0.3,0,0.7,0,1h2c0,0.3,0,0.7,0,1h3
								c3.9,3.8,11.2,4.6,16,7h3c0,0.3,0,0.7,0,1h4c0,0.3,0,0.7,0,1h4c0,0.3,0,0.7,0,1h5c0,0.3,0,0.7,0,1h7c0,0.3,0,0.7,0,1h21
								c0-0.3,0-0.7,0-1h11c0-0.3,0-0.7,0-1h7c0-0.3,0-0.7,0-1h6c0-0.3,0-0.7,0-1h5c0-0.3,0-0.7,0-1h5c6.3-2.4,13-4,19-7h3
								c0-0.3,0-0.7,0-1h3c0-0.3,0-0.7,0-1h2c0-0.3,0-0.7,0-1h3c0-0.3,0-0.7,0-1h2c2.1-1.8,7.8-3.1,9-5.5c0.9-1.8,0-6.5,0-8.5
								c0-5.7,0-11.3,0-17c0-5.5,0.8-11.6,0-17c-0.3-1.7-1-2.5-1-4.5c0-1.3,0-2.7,0-4c0-3.1-1-5.2-1-8.5c0-10.3-3-20.2-3-30.5
								c0-3.1-1-5-1-8c0-2.3,0.3-4.8,0-7c-0.7-4.9-1-10.1-1-15.5c0-10.2,0-20.3,0-30.5c0-5.3,0.3-10.2,1-15c0.4-2.6-0.4-5.4,0-8
								c0.2-1,0.9-2.1,1-3.5c0.1-1.1,0-2.3,0-3.5c0-2.8,0.6-5.1,1-8c0.4-2.6,0.6-4.7,1-7.5c0.7-4.9,1.7-10.1,2.5-15
								c0.4-2.6,0.9-5.4,1.5-8c0.3-1.3,0.8-2.2,1-3.5c0.1-0.7-0.1-1.3,0-2c0.1-0.8,0.9-1.5,1-2c0.8-5.2,1.4-10.1,3-15
								c3.4-10.2,6.6-20.4,10-30.5c3.5-10.5,9.8-20,15-30h1c-0.4-3,4.7-7.7,6.5-10c2.5-3.2,4.4-6.4,7.5-9.5c3.4-3.4,5.8-6.8,9-10
								c3.2-3.2,5-5,5-9.5H355z M309.5,135c-1.4,3-2.6,6-4,9c-2.7,5.8-4.5,11.4-6.5,17.5c-2,5.9-4,12-6,18c-2,5.9-3,11.7-4,18
								c-0.2,1.2-1.3,3.2-1.5,4.5c-0.1,1-0.3,2.3-0.5,3.5c-0.2,1.7-0.8,2.5-1,4c-0.1,0.7,0.1,1.3,0,2c-0.1,0.8-0.9,1.5-1,2
								c-0.2,1.3,0.2,2.7,0,4c-0.2,1.7-0.8,2.5-1,4c-0.4,2.8-1,5.2-1,8c0,5.3-2,10.6-2,16c0,5.4-2,10.2-2,15.5c0,21.3,0,42.7,0,64
								c0,5.3,1.3,10.5,2,15.5c0.8,5.5,0.2,10.5,1,16c0.4,2.7,1,5.3,1,8.5c0,3,0.6,5,1,7.5c0.8,5.4,1,10.3,1,16c0,5.3,0,10.7,0,16
								c0,5.3,1.2,11.9-2,16c-3.8,4.9-10.4,6.1-16,8c-5.4,1.8-10.7,3.5-16,5.5h-5c0,0.3,0,0.7,0,1h-5c0,0.3,0,0.7,0,1h-6
								c0,0.3,0,0.7,0,1h-6c0,0.3,0,0.7,0,1h-29c0-0.3,0-0.7,0-1h-5c0-0.3,0-0.7,0-1h-5c-12.9-4.8-25.7-8.8-38-15
								c-12.8-6.4-25.2-13.6-37-21.5c-5.5-3.7-11.2-6.5-16.5-10.2c-6.1-4.2-9.5-8.5-9.5-15.8c0-11.2,0-22.3,0-33.5
								c0-5.8,0.3-11.2,1-16.5c0.8-5.4,1.5-11.3,3-16.5c0.4-1.4,0.8-3.2,1-4.5c0.1-0.7-0.1-1.3,0-2c0.1-1,0.9-1.3,1-2
								c0.5-3.1,1.1-5.2,2-8c1.9-5.6,3.1-11.4,5-17c0.9-2.8,2.3-5.7,3.5-8.5c1.1-2.6,1.7-5.4,3-8c1.3-2.5,1.6-5.8,2.5-8.5
								c0.9-2.6,1.6-5.2,2-8c0.8-5.9,1-11,0-17c-0.2-1.2-1.5-3.3-2-4.5c-0.7-1.6-1.6-2.5-2.5-4c-1.6-2.7-3.6-5.3-5.5-8
								c-3-4.3-4-10.9-4-16.5c0-6.5,8.3-9.6,13.5-12.2c10.7-5.4,22.3-8.1,33.5-12.2h5c0-0.3,0-0.7,0-1h6c0-0.3,0-0.7,0-1h6
								c0-0.3,0-0.7,0-1h8c0-0.3,0-0.7,0-1h24c0-0.3,0-0.7,0-1h10c0-0.3,0-0.7,0-1h6c0-0.3,0-0.7,0-1h5c0-0.3,0-0.7,0-1h5
								c4-1.5,8-2.5,12-4h4c0-0.3,0-0.7,0-1h3c0-0.3,0-0.7,0-1h3c0-0.3,0-0.7,0-1h3c0-0.3,0-0.7,0-1h3c0-0.3,0-0.7,0-1h3
								c0-0.3,0-0.7,0-1h6c16.6-8.3,34.4-13.7,51-22h2C313.7,129,310.7,132.5,309.5,135z"/>
						</g>
						<defs>
							<filter id="Adobe_OpacityMaskFilter_6_" filterUnits="userSpaceOnUse" x="76.7" y="87" width="280.3" height="363">
								
									<feColorMatrix  type="matrix" values="-1 0 0 0 1  0 -1 0 0 1  0 0 -1 0 1  0 0 0 1 0" color-interpolation-filters="sRGB" result="source"/>
							</filter>
						</defs>
						<mask maskUnits="userSpaceOnUse" x="76.7" y="87" width="280.3" height="363" id="SVGID_6_">
							<g class="st22">
								<image style="overflow:visible;" width="285" height="367" xlink:href="D25094CB.jpg"  transform="matrix(1 0 0 1 74 85)">
								</image>
							</g>
						</mask>
						<g class="st23">
							<path class="st5" d="M355,87c-1.2,2.6-6.6,4.6-9,6c-2.9,1.8-6,3.5-9,5c-6.2,3.1-12.2,6.6-18.5,9.8
								c-12.5,6.2-25.1,12-37.5,18.2h-2c-3.7,3.6-10.8,5-15.5,7c-4.9,2.1-9.9,4-15,5.7c-10.1,3.4-20.6,5.6-30.5,9.3h-10
								c0,0.3,0,0.7,0,1h-6c0,0.3,0,0.7,0,1h-11c0,0.3,0,0.7,0,1h-24c0,0.3,0,0.7,0,1h-9c0,0.3,0,0.7,0,1h-6c0,0.3,0,0.7,0,1h-6
								c-3.7,1.4-7.5,2.2-11,4h-4c0,0.3,0,0.7,0,1h-3c0,0.3,0,0.7,0,1h-3c0,0.3,0,0.7,0,1h-3c0,0.3,0,0.7,0,1h-2c0,0.3,0,0.7,0,1h-3
								c0,0.3,0,0.7,0,1h-2c0,0.3,0,0.7,0,1h-3c0,0.3,0,0.7,0,1h-2c-4.9,4.1-12,6.5-17.5,9.8c-3.1,1.8-5.7,3.6-8.5,5.8
								c-3.7,2.8-6.6,3.4-2.5,7.5c2.8,2.8,5.3,5,6.5,8.5c1.1,3.3,0,5.2,0,9c0,7.9,9.1,9.8,13,16c1.3,2,1.7,5.6,2,8
								c0.4,2.7-0.3,4.8-1,7c-1.7,5.2-2.6,10.4-4.5,15.5c-3.7,10.1-7.1,20.2-10.5,30.5c-3.3,9.8-5.3,20-7,30.5
								c-1.6,9.9-3,19.8-3,30.5c0,10.2,0,20.3,0,30.5c0,4.4-1.4,11.7,1.5,14.8c3.9,4.2,10.8,6.6,15.5,9.8
								c10.1,6.7,20.1,13.5,30.5,19.8c5,3,10.2,5.5,15,8.8c4.8,3.3,11.1,4.3,15.5,8h2c0,0.3,0,0.7,0,1h2c0,0.3,0,0.7,0,1h3
								c3.9,3.8,11.2,4.6,16,7h3c0,0.3,0,0.7,0,1h4c0,0.3,0,0.7,0,1h4c0,0.3,0,0.7,0,1h5c0,0.3,0,0.7,0,1h7c0,0.3,0,0.7,0,1h21
								c0-0.3,0-0.7,0-1h11c0-0.3,0-0.7,0-1h7c0-0.3,0-0.7,0-1h6c0-0.3,0-0.7,0-1h5c0-0.3,0-0.7,0-1h5c6.3-2.4,13-4,19-7h3
								c0-0.3,0-0.7,0-1h3c0-0.3,0-0.7,0-1h2c0-0.3,0-0.7,0-1h3c0-0.3,0-0.7,0-1h2c2.1-1.8,7.8-3.1,9-5.5c0.9-1.8,0-6.5,0-8.5
								c0-5.7,0-11.3,0-17c0-5.5,0.8-11.6,0-17c-0.3-1.7-1-2.5-1-4.5c0-1.3,0-2.7,0-4c0-3.1-1-5.2-1-8.5c0-10.3-3-20.2-3-30.5
								c0-3.1-1-5-1-8c0-2.3,0.3-4.8,0-7c-0.7-4.9-1-10.1-1-15.5c0-10.2,0-20.3,0-30.5c0-5.3,0.3-10.2,1-15c0.4-2.6-0.4-5.4,0-8
								c0.2-1,0.9-2.1,1-3.5c0.1-1.1,0-2.3,0-3.5c0-2.8,0.6-5.1,1-8c0.4-2.6,0.6-4.7,1-7.5c0.7-4.9,1.7-10.1,2.5-15
								c0.4-2.6,0.9-5.4,1.5-8c0.3-1.3,0.8-2.2,1-3.5c0.1-0.7-0.1-1.3,0-2c0.1-0.8,0.9-1.5,1-2c0.8-5.2,1.4-10.1,3-15
								c3.4-10.2,6.6-20.4,10-30.5c3.5-10.5,9.8-20,15-30h1c-0.4-3,4.7-7.7,6.5-10c2.5-3.2,4.4-6.4,7.5-9.5c3.4-3.4,5.8-6.8,9-10
								c3.2-3.2,5-5,5-9.5H355z M309.5,135c-1.4,3-2.6,6-4,9c-2.7,5.8-4.5,11.4-6.5,17.5c-2,5.9-4,12-6,18c-2,5.9-3,11.7-4,18
								c-0.2,1.2-1.3,3.2-1.5,4.5c-0.1,1-0.3,2.3-0.5,3.5c-0.2,1.7-0.8,2.5-1,4c-0.1,0.7,0.1,1.3,0,2c-0.1,0.8-0.9,1.5-1,2
								c-0.2,1.3,0.2,2.7,0,4c-0.2,1.7-0.8,2.5-1,4c-0.4,2.8-1,5.2-1,8c0,5.3-2,10.6-2,16c0,5.4-2,10.2-2,15.5c0,21.3,0,42.7,0,64
								c0,5.3,1.3,10.5,2,15.5c0.8,5.5,0.2,10.5,1,16c0.4,2.7,1,5.3,1,8.5c0,3,0.6,5,1,7.5c0.8,5.4,1,10.3,1,16c0,5.3,0,10.7,0,16
								c0,5.3,1.2,11.9-2,16c-3.8,4.9-10.4,6.1-16,8c-5.4,1.8-10.7,3.5-16,5.5h-5c0,0.3,0,0.7,0,1h-5c0,0.3,0,0.7,0,1h-6
								c0,0.3,0,0.7,0,1h-6c0,0.3,0,0.7,0,1h-29c0-0.3,0-0.7,0-1h-5c0-0.3,0-0.7,0-1h-5c-12.9-4.8-25.7-8.8-38-15
								c-12.8-6.4-25.2-13.6-37-21.5c-5.5-3.7-11.2-6.5-16.5-10.2c-6.1-4.2-9.5-8.5-9.5-15.8c0-11.2,0-22.3,0-33.5
								c0-5.8,0.3-11.2,1-16.5c0.8-5.4,1.5-11.3,3-16.5c0.4-1.4,0.8-3.2,1-4.5c0.1-0.7-0.1-1.3,0-2c0.1-1,0.9-1.3,1-2
								c0.5-3.1,1.1-5.2,2-8c1.9-5.6,3.1-11.4,5-17c0.9-2.8,2.3-5.7,3.5-8.5c1.1-2.6,1.7-5.4,3-8c1.3-2.5,1.6-5.8,2.5-8.5
								c0.9-2.6,1.6-5.2,2-8c0.8-5.9,1-11,0-17c-0.2-1.2-1.5-3.3-2-4.5c-0.7-1.6-1.6-2.5-2.5-4c-1.6-2.7-3.6-5.3-5.5-8
								c-3-4.3-4-10.9-4-16.5c0-6.5,8.3-9.6,13.5-12.2c10.7-5.4,22.3-8.1,33.5-12.2h5c0-0.3,0-0.7,0-1h6c0-0.3,0-0.7,0-1h6
								c0-0.3,0-0.7,0-1h8c0-0.3,0-0.7,0-1h24c0-0.3,0-0.7,0-1h10c0-0.3,0-0.7,0-1h6c0-0.3,0-0.7,0-1h5c0-0.3,0-0.7,0-1h5
								c4-1.5,8-2.5,12-4h4c0-0.3,0-0.7,0-1h3c0-0.3,0-0.7,0-1h3c0-0.3,0-0.7,0-1h3c0-0.3,0-0.7,0-1h3c0-0.3,0-0.7,0-1h3
								c0-0.3,0-0.7,0-1h6c16.6-8.3,34.4-13.7,51-22h2C313.7,129,310.7,132.5,309.5,135z"/>
						</g>
					</g>
				</g>
				<path class="st6" d="M272.2,326.9c0,0,11.8,120.7,4.4,129.3"/>
				<path class="st6" d="M87.4,324.6c0,0-11.8,84.3-4.4,90.4"/>
				<line class="st6" x1="427.9" y1="30.3" x2="468.2" y2="1.6"/>
				<circle class="st24" cx="89.9" cy="374.9" r="11.9"/>
				<circle class="st24" cx="269.5" cy="385.8" r="11.9"/>
				<path class="st6" d="M116.7,368.6v20c0,0,31.9,37.4,9,50.7"/>
				<path class="st6" d="M134.1,371.9V392c0,0,30.9,43.5,8,57"/>
				<path class="st6" d="M149,374.9v22c0,0,42.1,47.5,10.9,62.2"/>
				<path class="st6" d="M167.8,377.8v22.8c0,0,42.1,49.3,10.9,64.5"/>
				<path class="st6" d="M190.6,377.8v24.4c0,0,42.1,52.6,10.9,68.8"/>
			</g>
		</g>
	</g>
	<g id="ringhiera">
		<path class="st1" d="M135.9,326.1"/>
		<path class="st0" d="M90.4,339.9c0,0,37.2-4.7,14.7,17c-12.2,11.7,63.1,22,91.9,22c40.7,0,59.5-9.9,59.5-9.9s-14.5-11.8,6.9-23.8"
			/>
		<path class="st1" d="M116.7,387.8"/>
		<path class="st0" d="M101.8,426.4c45.6,11.9-28.4-52.4,14.9-38.7c81.3,25.8,134.3,3.4,134.3,3.4"/>
		<path class="st0" d="M252.6,464.1c-4-73.4-2-73.4-2-73.4"/>
		<circle class="st0" cx="269.5" cy="385.8" r="17.9"/>
		<circle class="st0" cx="89.9" cy="374.9" r="17.9"/>
		<path class="st0" d="M61.2,309.8c0,0-19.9,11.2-4.5,13.9c4.7,0.8,96.8-6.1,71,11.6c-18.8,12.9,18.8,17.8,26.8,17.9
			c30.6,0.5,92.3,12.8,82.3-9.9c-9.9-22.7,73.9-15.2,73.9-15.2s11.4-7.5,0-12.5"/>
	</g>
</g>
<g id="Livello_2">
	<ellipse class="st19" cx="18.9" cy="424.2" rx="4.4" ry="4.4"/>
	<g>
		
			<image style="overflow:visible;opacity:0.75;" width="54" height="55" xlink:href="D25094F6.png"  transform="matrix(1 0 0 1 -8 397)">
		</image>
		<g>
			<ellipse class="st13" cx="18.9" cy="424.5" rx="10.8" ry="10.8"/>
		</g>
	</g>
	<ellipse class="st19" cx="73.1" cy="481" rx="4.4" ry="4.4"/>
	<g>
		
			<image style="overflow:visible;opacity:0.75;" width="54" height="55" xlink:href="D25094F9.png"  transform="matrix(1 0 0 1 46 454)">
		</image>
		<g>
			<ellipse class="st13" cx="73.1" cy="481.3" rx="10.8" ry="10.8"/>
		</g>
	</g>
	<ellipse class="st19" cx="128.7" cy="517.1" rx="4.4" ry="4.4"/>
	<g>
		
			<image style="overflow:visible;opacity:0.75;" width="55" height="55" xlink:href="D25094F8.png"  transform="matrix(1 0 0 1 101 490)">
		</image>
		<g>
			<ellipse class="st13" cx="128.7" cy="517.3" rx="10.8" ry="10.8"/>
		</g>
	</g>
	<ellipse class="st19" cx="181.4" cy="540.9" rx="4.4" ry="4.4"/>
	<g>
		
			<image style="overflow:visible;opacity:0.75;" width="55" height="54" xlink:href="D25094FE.png"  transform="matrix(1 0 0 1 154 514)">
		</image>
		<g>
			<ellipse class="st13" cx="181.4" cy="541.1" rx="10.8" ry="10.8"/>
		</g>
	</g>
	<ellipse class="st19" cx="237" cy="560.1" rx="4.4" ry="4.4"/>
	<g>
		
			<image style="overflow:visible;opacity:0.75;" width="54" height="55" xlink:href="D25094C4.png"  transform="matrix(1 0 0 1 210 533)">
		</image>
		<g>
			<ellipse class="st13" cx="237" cy="560.4" rx="10.8" ry="10.8"/>
		</g>
	</g>
	<ellipse class="st19" cx="291.9" cy="575.8" rx="4.4" ry="4.4"/>
	<g>
		
			<image style="overflow:visible;opacity:0.75;" width="54" height="54" xlink:href="D25094C5.png"  transform="matrix(1 0 0 1 265 549)">
		</image>
		<g>
			<ellipse class="st13" cx="291.9" cy="576.1" rx="10.8" ry="10.8"/>
		</g>
	</g>
	<ellipse class="st19" cx="346.8" cy="585.6" rx="4.4" ry="4.4"/>
	<g>
		
			<image style="overflow:visible;opacity:0.75;" width="55" height="54" xlink:href="D25094C6.png"  transform="matrix(1 0 0 1 319 559)">
		</image>
		<g>
			<ellipse class="st13" cx="346.8" cy="585.9" rx="10.8" ry="10.8"/>
		</g>
	</g>
	<ellipse class="st19" cx="951.9" cy="585.1" rx="4.4" ry="4.4"/>
	<g>
		
			<image style="overflow:visible;opacity:0.75;" width="54" height="55" xlink:href="D25094C7.png"  transform="matrix(1 0 0 1 925 558)">
		</image>
		<g>
			<ellipse class="st13" cx="951.9" cy="585.4" rx="10.8" ry="10.8"/>
		</g>
	</g>
	<ellipse class="st19" cx="1006.9" cy="577.5" rx="4.4" ry="4.4"/>
	<g>
		
			<image style="overflow:visible;opacity:0.75;" width="54" height="55" xlink:href="D25094C8.png"  transform="matrix(1 0 0 1 980 550)">
		</image>
		<g>
			<ellipse class="st13" cx="1006.9" cy="577.8" rx="10.8" ry="10.8"/>
		</g>
	</g>
	<ellipse class="st19" cx="1061.9" cy="561.3" rx="4.4" ry="4.4"/>
	<g>
		
			<image style="overflow:visible;opacity:0.75;" width="54" height="55" xlink:href="D250951A.png"  transform="matrix(1 0 0 1 1035 534)">
		</image>
		<g>
			<ellipse class="st13" cx="1061.9" cy="561.6" rx="10.8" ry="10.8"/>
		</g>
	</g>
	<ellipse class="st19" cx="1117.6" cy="540" rx="4.4" ry="4.4"/>
	<g>
		
			<image style="overflow:visible;opacity:0.75;" width="55" height="55" xlink:href="D2509525.png"  transform="matrix(1 0 0 1 1090 513)">
		</image>
		<g>
			<ellipse class="st13" cx="1117.6" cy="540.2" rx="10.8" ry="10.8"/>
		</g>
	</g>
	<ellipse class="st19" cx="1170.8" cy="516.3" rx="4.4" ry="4.4"/>
	<g>
		
			<image style="overflow:visible;opacity:0.75;" width="55" height="55" xlink:href="D2509526.png"  transform="matrix(1 0 0 1 1143 489)">
		</image>
		<g>
			<ellipse class="st13" cx="1170.8" cy="516.5" rx="10.8" ry="10.8"/>
		</g>
	</g>
	<ellipse class="st19" cx="1226.4" cy="480.3" rx="4.4" ry="4.4"/>
	<g>
		
			<image style="overflow:visible;opacity:0.75;" width="55" height="55" xlink:href="D2509524.png"  transform="matrix(1 0 0 1 1199 453)">
		</image>
		<g>
			<ellipse class="st13" cx="1226.4" cy="480.5" rx="10.8" ry="10.8"/>
		</g>
	</g>
	<ellipse class="st19" cx="1280" cy="421.3" rx="4.4" ry="4.4"/>
	<g>
		
			<image style="overflow:visible;opacity:0.75;" width="54" height="55" xlink:href="D250952A.png"  transform="matrix(1 0 0 1 1253 394)">
		</image>
		<g>
			<ellipse class="st13" cx="1280" cy="421.6" rx="10.8" ry="10.8"/>
		</g>
	</g>
</g>
<g id="Livello_3_1_">
	<g>
		
			<image style="overflow:visible;opacity:0.75;" width="82" height="82" xlink:href="D250952D.png"  transform="matrix(1 0 0 1 15 200)">
		</image>
		<g>
			<circle class="st13" cx="56.2" cy="240.8" r="24.3"/>
		</g>
	</g>
	<g>
		
			<image style="overflow:visible;opacity:0.75;" width="70" height="70" xlink:href="D250952E.png"  transform="matrix(1 0 0 1 25 204)">
		</image>
		<g>
			<circle class="st13" cx="59.6" cy="238.8" r="18.4"/>
		</g>
	</g>
	<g>
		
			<image style="overflow:visible;opacity:0.75;" width="61" height="61" xlink:href="D250952C.png"  transform="matrix(1 0 0 1 30 208)">
		</image>
		<g>
			<circle class="st13" cx="60.5" cy="238.3" r="14.1"/>
		</g>
	</g>
	<g>
		
			<image style="overflow:visible;opacity:0.75;" width="49" height="50" xlink:href="D250952B.png"  transform="matrix(1 0 0 1 40 210)">
		</image>
		<g>
			<circle class="st14" cx="64.4" cy="235" r="8.2"/>
			<circle class="st15" cx="64.4" cy="235" r="8.2"/>
		</g>
	</g>
</g>
</svg>
