<?xml version="1.0" encoding="utf-8"?>
<!-- Generator: Adobe Illustrator 24.3.0, SVG Export Plug-In . SVG Version: 6.00 Build 0)  -->
<svg version="1.1" id="Livello_1" xmlns="http://www.w3.org/2000/svg" xmlns:xlink="http://www.w3.org/1999/xlink" x="0px" y="0px"
	 viewBox="0 0 1292.8 769" style="enable-background:new 0 0 1292.8 769;" xml:space="preserve">
<style type="text/css">
	.st0{fill:none;stroke:#333333;stroke-width:2;stroke-miterlimit:10;}
	.st1{fill:#00FF9C;}
	.st2{fill:#00FF9C;stroke:#333333;stroke-width:2;stroke-miterlimit:10;}
	.st3{opacity:0.9;}
	.st4{fill:#00FF9C;stroke:#444444;stroke-width:2;stroke-miterlimit:10;}
	.st5{fill:#FFF428;}
	.st6{fill:#FFA081;stroke:#333333;stroke-width:2;stroke-miterlimit:10;}
	.st7{fill:#00A6FF;}
	.st8{fill:#00A6FF;stroke:#333333;stroke-width:2;stroke-miterlimit:10;}
	.st9{fill:#00A6FF;stroke:#444444;stroke-width:2;stroke-miterlimit:10;}
</style>
<g id="Livello_1_1_">
</g>
<g id="Livello_3">
	<path class="st0" d="M399.8,764.5c0,0,55.1,2.6,56.7,0.2c10.8-16.2,2-25,0.6-26.6c-13.4-16.1,4.7-24.3,4.7-27.4
		c0.3-55.9-35.8-329.3-13.5-337.8c0.5-0.2,6.6-2.4,6.2-4.7s-4.8-2.4-6-5c-1-2,0.2-4.4,7.9-10.7c10.7-8.7,12.3-9.7,12.5-11.8
		c0.4-5-14.5-8-19.6-12.6c-13.4-11.9-4.3-36-0.5-44.8C472.5,229.7,571,169,633.7,173c4,0.2,66-8,144.8,29
		c41.7,19.6,60.2,37.9,74.9,72c8.6,19.9,9.6,41,7.5,50.2c-2.7,11.5-16.1,13.4-23.9,18c-4.8,2.9,8.4,6.9,14.9,16.1
		c2.2,3.1-8.5,5.9-4.8,9.6c2.5,2.4,6.2,2.7,7.2,4.3c2.5,4.1-0.4,7.2,3.3,4.4c18.7-14,46.1-22.3,46.7-31.5
		c2.5-42.3-5.4-162.2-5.4-162.2S761.5,98.5,645.2,95.6c-85.2-2.1-248.7,88.2-248.7,88.2L399.8,764.5z"/>
</g>
<g id="Livello_4">
	<path class="st0" d="M905.1,588.2l-1,165.9l-55.9,0.2c0,0-13.9-13,1.5-31.1c6.4-7.6-1-16.3-5.5-20.4c-1.9-1.7-2.8-4.2-2.6-6.7
		l8.1-86.6L905.1,588.2z"/>
</g>
<g id="Livello_6">
	<path class="st0" d="M1264.8,666.3c0,0-30.6,25.8-27.3,36.8c1,3.4,6.1,6.9,11.4,7.3c4.3,0.3,9.3-1.3,11.8-3.7
		c2.6-2.5,6.6-13.2-2.5-14c-4.2-0.4-6.9,2.2-6.6,8.2"/>
	<path class="st0" d="M1262.9,754.3c0,0-29.7-24.9-26.4-36c1-3.4,6.1-6.9,11.4-7.3c4.3-0.3,9.3,1.3,11.8,3.7
		c2.6,2.5,6.6,13.2-2.5,14c-4.2,0.4-6.9-2.2-6.6-8.2"/>
	<path class="st0" d="M1263.6,754c0,0,29.7-24.9,26.4-36c-1-3.4-6.1-6.9-11.4-7.3c-4.3-0.3-9.3,1.3-11.8,3.7
		c-2.4,2.4-6.6,13.2,2.5,14c4.2,0.4,6.9-2.2,6.6-8.2"/>
	<path class="st0" d="M1276.2,700.8c0.3-6-2.4-8.6-6.6-8.2c-9.1,0.8-5,11.5-2.5,14s7.5,3.9,11.8,3.7c5.4-0.3,10.4-3.8,11.4-7.3
		c3.3-11.1-27.2-36.8-27.2-36.8"/>
	<path class="st0" d="M1209.2,666.6c0,0-30.6,25.8-27.3,36.8c1,3.4,6.1,6.9,11.4,7.3c4.3,0.3,9.3-1.3,11.8-3.7
		c2.4-2.4,6.6-13.2-2.5-14c-4.2-0.4-6.9,2.2-6.6,8.2"/>
	<path class="st0" d="M1207.4,754.6c0,0-29.7-24.9-26.4-36c1-3.4,6.1-6.9,11.4-7.3c4.3-0.3,9.3,1.3,11.8,3.7s6.6,13.2-2.5,14
		c-4.2,0.4-6.9-2.2-6.6-8.2"/>
	<path class="st0" d="M1208.1,754.3c0,0,29.7-24.9,26.4-36c-1-3.4-6.1-6.9-11.4-7.3c-4.3-0.3-9.3,1.3-11.8,3.7
		c-2.6,2.5-6.6,13.2,2.5,14c4.2,0.4,6.9-2.2,6.6-8.2"/>
	<path class="st0" d="M1207.6,666.5c0,0,30.5,25.7,27.2,36.8c-1,3.4-6.1,6.9-11.4,7.3c-4.3,0.3-9.3-1.3-11.8-3.7s-6.6-13.2,2.5-14
		c4.2-0.4,6.9,2.2,6.6,8.2"/>
	<path class="st0" d="M1153.8,667c0,0-30.6,25.8-27.3,36.8c1,3.4,6.1,6.9,11.4,7.3c4.3,0.3,9.3-1.3,11.8-3.7
		c2.4-2.4,6.6-13.2-2.5-14c-4.2-0.4-6.9,2.2-6.6,8.2"/>
	<path class="st0" d="M1151.9,755c0,0-29.7-24.9-26.4-36c1-3.4,6.1-6.9,11.4-7.3c4.3-0.3,9.3,1.3,11.8,3.7c2.4,2.4,6.6,13.2-2.5,14
		c-4.2,0.4-6.9-2.2-6.6-8.2"/>
	<path class="st0" d="M1152.7,754.8c0,0,29.7-24.9,26.4-36c-1-3.4-6.1-6.9-11.4-7.3c-4.3-0.3-9.3,1.3-11.8,3.7
		c-2.4,2.4-6.6,13.2,2.5,14c4.2,0.4,6.9-2.2,6.6-8.2"/>
	<path class="st0" d="M1152.2,666.9c0,0,30.5,25.7,27.2,36.8c-1,3.4-6.1,6.9-11.5,7.3c-4.3,0.3-9.3-1.3-11.7-3.7
		c-2.6-2.5-6.6-13.2,2.5-14c4.2-0.4,6.9,2.2,6.6,8.2"/>
	<path class="st0" d="M1098.7,666.5c0,0-30.6,25.8-27.3,36.8c1,3.4,6.1,6.9,11.4,7.3c4.3,0.3,9.3-1.3,11.8-3.7
		c2.4-2.4,6.6-13.2-2.5-14c-4.2-0.4-6.9,2.2-6.6,8.2"/>
	<path class="st0" d="M1096.8,754.5c0,0-29.7-24.9-26.4-36c1-3.4,6.1-6.9,11.5-7.3c4.3-0.3,9.3,1.3,11.7,3.7s6.6,13.2-2.5,14
		c-4.2,0.4-6.9-2.2-6.6-8.2"/>
	<path class="st0" d="M1097.6,754.2c0,0,29.7-24.9,26.4-36c-1-3.4-6.1-6.9-11.4-7.3c-4.3-0.3-9.3,1.3-11.8,3.7
		c-2.4,2.4-6.6,13.2,2.5,14c4.2,0.4,6.9-2.2,6.6-8.2"/>
	<path class="st0" d="M1097.1,666.4c0,0,30.5,25.7,27.2,36.8c-1,3.4-6.1,6.9-11.4,7.3c-4.3,0.3-9.3-1.3-11.8-3.7
		c-2.4-2.4-6.6-13.2,2.5-14c4.2-0.4,6.9,2.2,6.6,8.2"/>
	<path class="st0" d="M1044.3,666.5c0,0-30.6,25.8-27.3,36.8c1,3.4,6.1,6.9,11.4,7.3c4.3,0.3,9.3-1.3,11.8-3.7
		c2.4-2.4,6.6-13.2-2.5-14c-4.2-0.4-6.9,2.2-6.6,8.2"/>
	<path class="st0" d="M1042.4,754.5c0,0-29.7-24.9-26.4-36c1-3.4,6.1-6.9,11.4-7.3c4.3-0.3,9.3,1.3,11.8,3.7s6.6,13.2-2.5,14
		c-4.2,0.4-6.9-2.2-6.6-8.2"/>
	<path class="st0" d="M1043.1,754.2c0,0,29.7-24.9,26.4-36c-1-3.4-6.1-6.9-11.4-7.3c-4.3-0.3-9.3,1.3-11.8,3.7
		c-2.4,2.4-6.6,13.2,2.5,14c4.2,0.4,6.9-2.2,6.6-8.2"/>
	<path class="st0" d="M1042.7,666.4c0,0,30.5,25.7,27.2,36.8c-1,3.4-6.1,6.9-11.4,7.3c-4.3,0.3-9.3-1.3-11.8-3.7s-6.6-13.2,2.5-14
		c4.2-0.4,6.9,2.2,6.6,8.2"/>
	<path class="st0" d="M989,666.5c0,0-30.6,25.8-27.3,36.8c1,3.4,6.1,6.9,11.5,7.3c4.3,0.3,9.3-1.3,11.7-3.7s6.6-13.2-2.5-14
		c-4.2-0.4-6.9,2.2-6.6,8.2"/>
	<path class="st0" d="M987.1,754.5c0,0-29.7-24.9-26.4-36c1-3.4,6.1-6.9,11.4-7.3c4.3-0.3,9.3,1.3,11.8,3.7c2.6,2.5,6.6,13.2-2.5,14
		c-4.2,0.4-6.9-2.2-6.6-8.2"/>
	<path class="st0" d="M987.9,754.2c0,0,29.7-24.9,26.4-36c-1-3.4-6.1-6.9-11.4-7.3c-4.3-0.3-9.3,1.3-11.8,3.7s-6.6,13.2,2.5,14
		c4.2,0.4,6.9-2.2,6.6-8.2"/>
	<path class="st0" d="M987.4,666.4c0,0,30.5,25.7,27.2,36.8c-1,3.4-6.1,6.9-11.4,7.3c-4.3,0.3-9.3-1.3-11.8-3.7s-6.6-13.2,2.5-14
		c4.2-0.4,6.9,2.2,6.6,8.2"/>
	<line class="st0" x1="959.1" y1="754.2" x2="1290.8" y2="754.2"/>
	<line class="st0" x1="959.9" y1="653.5" x2="1291.6" y2="653.5"/>
	<path class="st0" d="M959.9,765.7v-170"/>
	<line class="st0" x1="1015.2" y1="765.7" x2="1015.2" y2="583.4"/>
	<line class="st0" x1="1070.5" y1="765.7" x2="1070.5" y2="566.1"/>
	<line class="st0" x1="1125.8" y1="765.7" x2="1126.6" y2="544.6"/>
	<line class="st0" x1="1180.2" y1="765.7" x2="1180.2" y2="520.7"/>
	<line class="st0" x1="1236.3" y1="768.2" x2="1236.3" y2="484.4"/>
	<path class="st0" d="M1290.8,765.7V425"/>
	<path class="st0" d="M960.4,603c0,0,258.4-17.5,329.9-162.5"/>
	<path class="st0" d="M1080.4,513.3"/>
	<path class="st0" d="M1153.8,629.1"/>
	<path class="st0" d="M1015.7,634.3c6,7.5,15.5,11.4,25.1,10.1c16.5-2,30.4-19,30.4-19s2.6,17.3,22.1,14.8
		c25.5-3.2,32.5-28.5,32.5-28.5c0.3,0,8.2,15.3,26,15.6c14.9,0.3,28.9-36.1,28.9-36.1s9.8,23.1,23.2,21.6
		c13.4-1.5,26.5-14.2,33.1-54.4c0,0-0.1,35.7,25.8,40.2c26.2,4.5,27.9-99.4,27.9-99.4c-33.6,58.9-100.2,92.9-165,112.6
		c-84.9,25.8-166.6,26.8-166.6,26.8"/>
	<path class="st0" d="M960.6,638.6c0,0,11.6,9.6,27.3,8.5c9.6-0.8,18.6-4.8,25.6-11.5"/>
	<line class="st0" x1="1264.3" y1="599.1" x2="1263.5" y2="665.9"/>
	<line class="st0" x1="1207.4" y1="612.3" x2="1207.4" y2="666.7"/>
	<line class="st0" x1="1153" y1="627.1" x2="1153" y2="667.6"/>
	<line class="st0" x1="1097.7" y1="639.5" x2="1097.7" y2="666.7"/>
	<line class="st0" x1="1043.2" y1="644.5" x2="1043.2" y2="666.7"/>
	<line class="st0" x1="988" y1="647.8" x2="988" y2="666.7"/>
	<path class="st0" d="M1128.6,729.8"/>
	<path class="st0" d="M44.6,667.1c0,0,30.6,25.8,27.3,36.8c-1,3.4-6.1,6.9-11.5,7.3c-4.3,0.3-9.3-1.3-11.8-3.7s-6.6-13.2,2.5-14
		c4.2-0.4,6.9,2.2,6.6,8.2"/>
	<path class="st0" d="M46.5,755.2c0,0,29.7-24.9,26.4-36c-1-3.4-6.1-6.9-11.5-7.3c-4.3-0.3-9.3,1.3-11.8,3.7s-6.6,13.2,2.5,14
		c4.2,0.4,6.9-2.2,6.6-8.2"/>
	<path class="st0" d="M45.7,754.9c0,0-29.7-24.9-26.4-36c1-3.4,6.1-6.9,11.5-7.3c4.3-0.3,9.3,1.3,11.8,3.7s6.6,13.2-2.5,14
		c-4.2,0.4-6.9-2.2-6.6-8.2"/>
	<path class="st0" d="M33.1,701.7c-0.3-6,2.4-8.6,6.6-8.2c9.1,0.8,5,11.5,2.5,14s-7.5,3.9-11.8,3.7c-5.4-0.3-10.4-3.8-11.5-7.3
		C15.7,692.7,46.2,667,46.2,667"/>
	<path class="st0" d="M100.1,667.4c0,0,30.6,25.8,27.3,36.8c-1,3.4-6.1,6.9-11.5,7.3c-4.3,0.3-9.3-1.3-11.8-3.7
		c-2.6-2.5-6.6-13.2,2.5-14c4.2-0.4,6.9,2.2,6.6,8.2"/>
	<path class="st0" d="M102,755.4c0,0,29.7-24.9,26.4-36c-1-3.4-6.1-6.9-11.5-7.3c-4.3-0.3-9.3,1.3-11.8,3.7s-6.6,13.2,2.5,14
		c4.2,0.4,6.9-2.2,6.6-8.2"/>
	<path class="st0" d="M101.2,755.1c0,0-29.7-24.9-26.4-36c1-3.4,6.1-6.9,11.5-7.3c4.3-0.3,9.3,1.3,11.8,3.7s6.6,13.2-2.5,14
		c-4.2,0.4-6.9-2.2-6.6-8.2"/>
	<path class="st0" d="M101.7,667.3c0,0-30.5,25.7-27.2,36.8c1,3.4,6.1,6.9,11.5,7.3c4.3,0.3,9.3-1.3,11.8-3.7s6.6-13.2-2.5-14
		c-4.2-0.4-6.9,2.2-6.6,8.2"/>
	<path class="st0" d="M155.6,667.9c0,0,30.6,25.8,27.3,36.8c-1,3.4-6.1,6.9-11.5,7.3c-4.3,0.3-9.3-1.3-11.7-3.7
		c-2.6-2.5-6.6-13.2,2.5-14c4.2-0.4,6.9,2.2,6.6,8.2"/>
	<path class="st0" d="M157.5,755.9c0,0,29.7-24.9,26.4-36c-1-3.4-6.1-6.9-11.5-7.3c-4.3-0.3-9.3,1.3-11.8,3.7s-6.6,13.2,2.5,14
		c4.2,0.4,6.9-2.2,6.6-8.2"/>
	<path class="st0" d="M156.7,755.6c0,0-29.7-24.9-26.4-36c1-3.4,6.1-6.9,11.5-7.3c4.3-0.3,9.3,1.3,11.7,3.7s6.6,13.2-2.5,14
		c-4.2,0.4-6.9-2.2-6.6-8.2"/>
	<path class="st0" d="M157.1,667.8c0,0-30.5,25.7-27.2,36.8c1,3.4,6.1,6.9,11.5,7.3c4.3,0.3,9.3-1.3,11.8-3.7s6.6-13.2-2.5-14
		c-4.2-0.4-6.9,2.2-6.6,8.2"/>
	<path class="st0" d="M210.7,667.3c0,0,30.6,25.8,27.3,36.8c-1,3.4-6.1,6.9-11.5,7.3c-4.3,0.3-9.3-1.3-11.8-3.7
		c-2.6-2.5-6.6-13.2,2.5-14c4.2-0.4,6.9,2.2,6.6,8.2"/>
	<path class="st0" d="M212.6,755.3c0,0,29.7-24.9,26.4-36c-1-3.4-6.1-6.9-11.5-7.3c-4.3-0.3-9.3,1.3-11.8,3.7s-6.6,13.2,2.5,14
		c4.2,0.4,6.9-2.2,6.6-8.2"/>
	<path class="st0" d="M211.8,755c0,0-29.7-24.9-26.4-36c1-3.4,6.1-6.9,11.4-7.3c4.3-0.3,9.3,1.3,11.8,3.7s6.6,13.2-2.5,14
		c-4.2,0.4-6.9-2.2-6.6-8.2"/>
	<path class="st0" d="M212.3,667.2c0,0-30.5,25.7-27.2,36.8c1,3.4,6.1,6.9,11.4,7.3c4.3,0.3,9.3-1.3,11.8-3.7
		c2.6-2.5,6.6-13.2-2.5-14c-4.2-0.4-6.9,2.2-6.6,8.2"/>
	<path class="st0" d="M265.1,667.3c0,0,30.6,25.8,27.3,36.8c-1,3.4-6.1,6.9-11.5,7.3c-4.3,0.3-9.3-1.3-11.8-3.7
		c-2.6-2.5-6.6-13.2,2.5-14c4.2-0.4,6.9,2.2,6.6,8.2"/>
	<path class="st0" d="M267,755.3c0,0,29.7-24.9,26.4-36c-1-3.4-6.1-6.9-11.5-7.3c-4.3-0.3-9.3,1.3-11.8,3.7s-6.6,13.2,2.5,14
		c4.2,0.4,6.9-2.2,6.6-8.2"/>
	<path class="st0" d="M266.2,755c0,0-29.7-24.9-26.4-36c1-3.4,6.1-6.9,11.5-7.3c4.3-0.3,9.3,1.3,11.8,3.7s6.6,13.2-2.5,14
		c-4.2,0.4-6.9-2.2-6.6-8.2"/>
	<path class="st0" d="M266.7,667.2c0,0-30.5,25.7-27.2,36.8c1,3.4,6.1,6.9,11.5,7.3c4.3,0.3,9.3-1.3,11.8-3.7
		c2.6-2.5,6.6-13.2-2.5-14c-4.2-0.4-6.9,2.2-6.6,8.2"/>
	<path class="st0" d="M320.4,667.3c0,0,30.6,25.8,27.3,36.8c-1,3.4-6.1,6.9-11.5,7.3c-4.3,0.3-9.3-1.3-11.8-3.7
		c-2.6-2.5-6.6-13.2,2.5-14c4.2-0.4,6.9,2.2,6.6,8.2"/>
	<path class="st0" d="M322.3,755.3c0,0,29.7-24.9,26.4-36c-1-3.4-6.1-6.9-11.5-7.3c-4.3-0.3-9.3,1.3-11.8,3.7s-6.6,13.2,2.5,14
		c4.2,0.4,6.9-2.2,6.6-8.2"/>
	<path class="st0" d="M321.5,755c0,0-29.7-24.9-26.4-36c1-3.4,6.1-6.9,11.5-7.3c4.3-0.3,9.3,1.3,11.8,3.7s6.6,13.2-2.5,14
		c-4.2,0.4-6.9-2.2-6.6-8.2"/>
	<path class="st0" d="M322,667.2c0,0-30.5,25.7-27.2,36.8c1,3.4,6.1,6.9,11.5,7.3c4.3,0.3,9.3-1.3,11.7-3.7c2.6-2.5,6.6-13.2-2.5-14
		c-4.2-0.4-6.9,2.2-6.6,8.2"/>
	<line class="st0" x1="350.3" y1="755" x2="18.6" y2="755"/>
	<line class="st0" x1="349.4" y1="654.4" x2="17.8" y2="654.4"/>
	<path class="st0" d="M349.4,766.6v-170"/>
	<line class="st0" x1="294.2" y1="766.6" x2="294.2" y2="584.2"/>
	<line class="st0" x1="238.9" y1="766.6" x2="238.9" y2="566.9"/>
	<line class="st0" x1="183.6" y1="766.6" x2="182.8" y2="545.5"/>
	<line class="st0" x1="129.2" y1="766.6" x2="129.2" y2="521.5"/>
	<line class="st0" x1="73.1" y1="769" x2="73.1" y2="485.2"/>
	<path class="st0" d="M18.6,766.6V425.8"/>
	<path class="st0" d="M348.9,603.9c0,0-258.4-17.5-329.9-162.5"/>
	<path class="st0" d="M229,514.1"/>
	<path class="st0" d="M155.6,629.9"/>
	<path class="st0" d="M293.7,635.2c-6,7.6-15.5,11.4-25.1,10.1c-16.5-2-30.4-19-30.4-19s-2.6,17.3-22.1,14.8
		c-25.5-3.2-32.5-28.4-32.5-28.4c-0.3,0-8.2,15.3-26.1,15.6c-14.9,0.3-28.9-36.1-28.9-36.1s-9.8,23.1-23.2,21.6S79,599.6,72.3,559.3
		c0,0,0.1,35.7-25.8,40.2c-26.2,4.5-27.9-99.4-27.9-99.4c33.6,58.9,100.2,93,165,112.6c85,25.8,166.6,26.8,166.6,26.8"/>
	<path class="st0" d="M348.8,639.5c0,0-11.6,9.6-27.3,8.5c-9.6-0.8-18.6-4.8-25.6-11.5"/>
	<line class="st0" x1="45" y1="599.9" x2="45.8" y2="666.7"/>
	<line class="st0" x1="101.9" y1="613.1" x2="101.9" y2="667.6"/>
	<line class="st0" x1="156.4" y1="628" x2="156.4" y2="668.4"/>
	<line class="st0" x1="211.7" y1="640.3" x2="211.7" y2="667.6"/>
	<line class="st0" x1="266.1" y1="645.3" x2="266.1" y2="667.6"/>
	<line class="st0" x1="321.4" y1="648.6" x2="321.4" y2="667.6"/>
	<path class="st0" d="M180.9,730.7"/>
</g>
<g id="bol_finestra">
	<polygon class="st0" points="1063.7,330 1008.4,342.6 1008.4,168.8 1063.7,156.3 	"/>
	<polygon class="st0" points="1186.7,330.1 1242,342.6 1242,168.9 1186.7,156.3 	"/>
	<rect x="1069.1" y="156.2" class="st0" width="54.7" height="173.7"/>
	<rect x="1127.1" y="155.9" class="st0" width="54.7" height="173.7"/>
</g>
<g id="Livello_8">
	<g>
		<g>
			<rect x="1072.3" y="160.2" class="st1" width="47.7" height="167.1"/>
			<rect x="1072.3" y="160.2" class="st2" width="47.7" height="167.1"/>
		</g>
		<g class="st3">
			<rect x="1072.3" y="160.2" class="st1" width="47.7" height="167.1"/>
			<rect x="1072.3" y="160.2" class="st4" width="47.7" height="167.1"/>
		</g>
	</g>
	<g>
		<g>
			<polygon class="st5" points="1059.6,327.5 1011.9,338.4 1011.9,171.3 1059.6,160.5 			"/>
			<polygon class="st0" points="1059.6,327.5 1011.9,338.4 1011.9,171.3 1059.6,160.5 			"/>
		</g>
		<g class="st3">
			<polygon class="st1" points="1059.6,327.5 1011.9,338.4 1011.9,171.3 1059.6,160.5 			"/>
			<polygon class="st4" points="1059.6,327.5 1011.9,338.4 1011.9,171.3 1059.6,160.5 			"/>
		</g>
	</g>
	<g>
		<g>
			<polygon class="st1" points="1190.2,328 1237.9,338.3 1237.9,171.2 1190.2,161 			"/>
			<polygon class="st2" points="1190.2,328 1237.9,338.3 1237.9,171.2 1190.2,161 			"/>
		</g>
		<g class="st3">
			<polygon class="st1" points="1190.2,328 1237.9,338.3 1237.9,171.2 1190.2,161 			"/>
			<polygon class="st4" points="1190.2,328 1237.9,338.3 1237.9,171.2 1190.2,161 			"/>
		</g>
	</g>
	<g>
		<g>
			<rect x="1130.8" y="159.9" class="st5" width="47.7" height="167.1"/>
			<rect x="1130.8" y="159.9" class="st0" width="47.7" height="167.1"/>
		</g>
		<g class="st3">
			<rect x="1130.8" y="159.9" class="st1" width="47.7" height="167.1"/>
			<rect x="1130.8" y="159.9" class="st4" width="47.7" height="167.1"/>
		</g>
	</g>
	<path class="st0" d="M1003.6,416.9c0,0,35,38,95,38s150-72,150-72v-33.8l-66.7-15.3h-118.2l-63.9,13.9V397"/>
	<path class="st0" d="M975.2,743.4"/>
	<path class="st0" d="M1069.1,71.9l179.4,25.5V164l-64.6-14l-119.9,0.7l-64.6,14l0.2-50C1069.1,71.4,872.1,1.4,872.1,1.4"/>
	<circle class="st0" cx="648.1" cy="132.4" r="24.5"/>
	<ellipse class="st0" cx="648.1" cy="135.9" rx="16.5" ry="16"/>
	<ellipse class="st0" cx="647.9" cy="138.1" rx="11.7" ry="11.1"/>
	<circle class="st6" cx="648.9" cy="138.5" r="8"/>
	<circle class="st0" cx="1120.5" cy="366" r="24.5"/>
	
		<ellipse transform="matrix(1.745293e-03 -1 1 1.745293e-03 756.0237 1482.5363)" class="st0" cx="1120.6" cy="362.6" rx="16" ry="16.5"/>
	
		<ellipse transform="matrix(1.745293e-03 -1 1 1.745293e-03 758.4015 1480.4154)" class="st0" cx="1120.7" cy="360.3" rx="11.2" ry="11.7"/>
	<circle class="st6" cx="1119.7" cy="359.9" r="8"/>
</g>
<g id="finestra">
	<path class="st0" d="M308.3,437.3c0,0-35,38-95,38s-150-72-150-72v-33.8c0.8-93,41.3-127,22.3-149c-1.5-1.8-16.3-10.9-12.5-17.1
		c5.5-8.8-10.5-19.8-10.5-19.8s45-43,123-43s249-112,249-112c0,11.2-104.4,72.5-126.2,186.7s5.9,149.6,0.2,222.3"/>
	<g>
		<g>
			<path class="st7" d="M298.8,432.4c0,0-36.2,20.5-87.9,20.5S78.6,390.5,78.6,390.5v-33.7c0.7-84.5,38.6-115.4,22.2-135.4
				c-1.3-1.6-14.1-9.9-10.7-15.6c4.7-8-9.1-18-9.1-18s38.8-34.1,106-34.1s172-64.3,172-64.3c0,10.2-41.3,23.4-60.1,127.2
				C280.1,320.5,303.7,366.4,298.8,432.4"/>
			<path class="st8" d="M298.8,432.4c0,0-36.2,20.5-87.9,20.5S78.6,390.5,78.6,390.5v-33.7c0.7-84.5,38.6-115.4,22.2-135.4
				c-1.3-1.6-14.1-9.9-10.7-15.6c4.7-8-9.1-18-9.1-18s38.8-34.1,106-34.1s172-64.3,172-64.3c0,10.2-41.3,23.4-60.1,127.2
				C280.1,320.5,303.7,366.4,298.8,432.4"/>
		</g>
		<g class="st3">
			<path class="st7" d="M298.8,432.4c0,0-36.2,20.5-87.9,20.5S78.6,390.5,78.6,390.5v-33.7c0.7-84.5,38.6-115.4,22.2-135.4
				c-1.3-1.6-14.1-9.9-10.7-15.6c4.7-8-9.1-18-9.1-18s38.8-34.1,106-34.1s172-64.3,172-64.3c0,10.2-41.3,23.4-60.1,127.2
				C280.1,320.5,303.7,366.4,298.8,432.4"/>
			<path class="st9" d="M298.8,432.4c0,0-36.2,20.5-87.9,20.5S78.6,390.5,78.6,390.5v-33.7c0.7-84.5,38.6-115.4,22.2-135.4
				c-1.3-1.6-14.1-9.9-10.7-15.6c4.7-8-9.1-18-9.1-18s38.8-34.1,106-34.1s172-64.3,172-64.3c0,10.2-41.3,23.4-60.1,127.2
				C280.1,320.5,303.7,366.4,298.8,432.4"/>
		</g>
	</g>
	<path class="st0" d="M274.3,329.5c0,0,11.9,121.7,4.4,130.4"/>
	<path class="st0" d="M88,327.2c0,0-11.9,85-4.4,91.1"/>
	<line class="st0" x1="431.3" y1="30.5" x2="471.9" y2="1.6"/>
	<circle class="st0" cx="64.6" cy="237.6" r="19"/>
	<circle class="st0" cx="67.1" cy="236.1" r="13.5"/>
	<circle class="st6" cx="69.6" cy="234.6" r="8"/>
	<circle class="st6" cx="90.6" cy="377.9" r="12"/>
	<circle class="st6" cx="271.6" cy="388.9" r="12"/>
	<path class="st0" d="M117.6,371.6v20.2c0,0,32.2,37.7,9.1,51.1"/>
	<path class="st0" d="M135.1,374.9v20.3c0,0,31.2,43.9,8.1,57.5"/>
	<path class="st0" d="M150.1,377.9v21.4c0,0,42.4,46.3,11,60.6"/>
	<path class="st0" d="M169.1,377.9v23.8c0,0,42.4,51.4,11,67.2"/>
	<path class="st0" d="M192.1,380.9v24.6c0,0,42.4,53,11,69.4"/>
</g>
<g id="ringhiera">
	<path class="st0" d="M136.9,328.7"/>
	<path class="st0" d="M91.1,342.6c0,0,37.5-4.7,14.8,17.1c-12.3,11.8,63.6,22.2,92.6,22.2c41,0,60-10,60-10s-14.6-11.9,7-24"/>
	<path class="st0" d="M117.6,390.9"/>
	<path class="st0" d="M102.6,429.9c46,12-28.6-52.8,15-39c82,26,135.4,3.4,135.4,3.4"/>
	<path class="st0" d="M254.6,467.9c-4-74-2-74-2-74"/>
	<circle class="st0" cx="271.6" cy="388.9" r="18"/>
	<circle class="st0" cx="90.6" cy="377.9" r="18"/>
	<path class="st0" d="M61.6,312.3c0,0-20.1,11.3-4.5,14c4.7,0.8,97.6-6.1,71.6,11.7c-19,13,19,17.9,27,18c30.8,0.5,93,12.9,83-10
		s74.5-15.3,74.5-15.3s11.5-7.6,0-12.6"/>
</g>
</svg>
